<svg width="969" height="262" xmlns="http://www.w3.org/2000/svg" xmlns:xlink="http://www.w3.org/1999/xlink" overflow="hidden"><defs><clipPath id="clip0"><rect x="-32" y="21" width="969" height="262"/></clipPath></defs><g clip-path="url(#clip0)" transform="translate(32 -21)"><path d="M7 159.833 76.9351 159.833 76.9351 162.167 7 162.167ZM69.5229 155.326 79.2504 161 69.5229 166.674C68.9663 166.999 68.2519 166.811 67.9273 166.255 67.6026 165.698 67.7906 164.984 68.3472 164.659L76.3472 159.992 76.3472 162.008 68.3472 157.341C67.7906 157.017 67.6026 156.302 67.9273 155.746 68.252 155.189 68.9663 155.001 69.5229 155.326Z" fill="#4A7EBB"/><rect x="79.5001" y="24.5001" width="152" height="256" stroke="#385D8A" stroke-width="2.66667" stroke-linejoin="round" stroke-miterlimit="10" fill="#4F81BD" fill-opacity="0.439216"/><text font-family="Calibri,Calibri_MSFontService,sans-serif" font-weight="400" font-size="24" transform="translate(104.12 148)">SERIAL-<tspan x="73" y="0">TO</tspan><tspan x="99.82" y="0">-</tspan><tspan x="6.87334" y="29">PARALLEL</tspan><tspan x="-121.033" y="40">Input </tspan><tspan x="-121.033" y="69">bitstream</tspan></text><rect x="489.5" y="23.5001" width="152" height="256" stroke="#385D8A" stroke-width="2.66667" stroke-linejoin="round" stroke-miterlimit="10" fill="#4F81BD" fill-opacity="0.439216"/><text font-family="Calibri,Calibri_MSFontService,sans-serif" font-weight="400" font-size="24" transform="translate(542.777 163)">IDFT</text><rect x="693.5" y="23.5001" width="152" height="256" stroke="#385D8A" stroke-width="2.66667" stroke-linejoin="round" stroke-miterlimit="10" fill="#4F81BD" fill-opacity="0.439216"/><text font-family="Calibri,Calibri_MSFontService,sans-serif" font-weight="400" font-size="24" transform="translate(747.862 163)">DAC</text><path d="M641 149.833 685.716 149.833 685.716 152.167 641 152.167ZM685.716 151 680.383 144.333 693.716 151 680.383 157.667Z" fill="#4A7EBB"/><path d="M848.5 152.5 905.211 152.5" stroke="#4A7EBB" stroke-width="3.33333" stroke-linejoin="round" stroke-miterlimit="10" fill="none" fill-rule="evenodd"/><path d="M0 0 30.9357 28.0058" stroke="#4A7EBB" stroke-width="3.33333" stroke-linejoin="round" stroke-miterlimit="10" fill="none" fill-rule="evenodd" transform="matrix(1 0 0 -1 904.5 153.506)"/><path d="M904.5 152.5 935.436 180.506" stroke="#4A7EBB" stroke-width="3.33333" stroke-linejoin="round" stroke-miterlimit="10" fill="none" fill-rule="evenodd"/><rect x="284.5" y="23.5001" width="152" height="256" stroke="#385D8A" stroke-width="2.66667" stroke-linejoin="round" stroke-miterlimit="10" fill="#4F81BD" fill-opacity="0.439216"/><text font-family="Calibri,Calibri_MSFontService,sans-serif" font-weight="400" font-size="24" transform="translate(333.764 148)">QAM <tspan x="-38.9733" y="29">MODULATOR</tspan></text><path d="M435 40.8333 479.252 40.8334 479.252 43.1668 435 43.1667ZM479.252 42.0001 473.919 35.3334 487.252 42.0001 473.919 48.6667Z" fill="#4A7EBB"/><path d="M435 85.8333 479.252 85.8334 479.252 88.1668 435 88.1667ZM479.252 87.0001 473.919 80.3334 487.252 87.0001 473.919 93.6667Z" fill="#4A7EBB"/><path d="M435 267.833 480.072 267.833 480.072 270.167 435 270.167ZM480.072 269 474.739 262.333 488.072 269 474.739 275.667Z" fill="#4A7EBB"/><path d="M457.5 146.5C457.5 145.395 458.395 144.5 459.5 144.5 460.605 144.5 461.5 145.395 461.5 146.5 461.5 147.605 460.605 148.5 459.5 148.5 458.395 148.5 457.5 147.605 457.5 146.5Z" stroke="#385D8A" stroke-width="2.66667" stroke-linejoin="round" stroke-miterlimit="10" fill="#4F81BD" fill-rule="evenodd"/><path d="M457.5 161.5C457.5 160.395 458.395 159.5 459.5 159.5 460.605 159.5 461.5 160.395 461.5 161.5 461.5 162.605 460.605 163.5 459.5 163.5 458.395 163.5 457.5 162.605 457.5 161.5Z" stroke="#385D8A" stroke-width="2.66667" stroke-linejoin="round" stroke-miterlimit="10" fill="#4F81BD" fill-rule="evenodd"/><path d="M457.5 176.5C457.5 175.395 458.395 174.5 459.5 174.5 460.605 174.5 461.5 175.395 461.5 176.5 461.5 177.605 460.605 178.5 459.5 178.5 458.395 178.5 457.5 177.605 457.5 176.5Z" stroke="#385D8A" stroke-width="2.66667" stroke-linejoin="round" stroke-miterlimit="10" fill="#4F81BD" fill-rule="evenodd"/><path d="M435 221.833 479.252 221.833 479.252 224.167 435 224.167ZM479.252 223 473.919 216.333 487.252 223 473.919 229.667Z" fill="#4A7EBB"/><path d="M232 40.8333 276.252 40.8334 276.252 43.1668 232 43.1667ZM276.252 42.0001 270.919 35.3334 284.252 42.0001 270.919 48.6667Z" fill="#4A7EBB"/><path d="M232 85.8333 276.252 85.8334 276.252 88.1668 232 88.1667ZM276.252 87.0001 270.919 80.3334 284.252 87.0001 270.919 93.6667Z" fill="#4A7EBB"/><path d="M232 267.833 277.072 267.833 277.072 270.167 232 270.167ZM277.072 269 271.739 262.333 285.072 269 271.739 275.667Z" fill="#4A7EBB"/><path d="M254.5 146.5C254.5 145.395 255.395 144.5 256.5 144.5 257.605 144.5 258.5 145.395 258.5 146.5 258.5 147.605 257.605 148.5 256.5 148.5 255.395 148.5 254.5 147.605 254.5 146.5Z" stroke="#385D8A" stroke-width="2.66667" stroke-linejoin="round" stroke-miterlimit="10" fill="#4F81BD" fill-rule="evenodd"/><path d="M254.5 161.5C254.5 160.395 255.395 159.5 256.5 159.5 257.605 159.5 258.5 160.395 258.5 161.5 258.5 162.605 257.605 163.5 256.5 163.5 255.395 163.5 254.5 162.605 254.5 161.5Z" stroke="#385D8A" stroke-width="2.66667" stroke-linejoin="round" stroke-miterlimit="10" fill="#4F81BD" fill-rule="evenodd"/><path d="M254.5 176.5C254.5 175.395 255.395 174.5 256.5 174.5 257.605 174.5 258.5 175.395 258.5 176.5 258.5 177.605 257.605 178.5 256.5 178.5 255.395 178.5 254.5 177.605 254.5 176.5Z" stroke="#385D8A" stroke-width="2.66667" stroke-linejoin="round" stroke-miterlimit="10" fill="#4F81BD" fill-rule="evenodd"/><path d="M232 221.833 276.252 221.833 276.252 224.167 232 224.167ZM276.252 223 270.919 216.333 284.252 223 270.919 229.667Z" fill="#4A7EBB"/></g></svg>