<svg width="599" height="433" xmlns="http://www.w3.org/2000/svg" xmlns:xlink="http://www.w3.org/1999/xlink" overflow="hidden"><defs><clipPath id="clip0"><rect x="117" y="-4" width="599" height="433"/></clipPath></defs><g clip-path="url(#clip0)" transform="translate(-117 4)"><path d="M335.501 336.065C335.707 217.879 360.72 122.712 391.369 123.505 421.891 124.294 446.518 219.974 446.494 337.669" stroke="#4A7EBB" stroke-width="2.66667" stroke-linejoin="round" stroke-miterlimit="10" fill="none" fill-rule="evenodd"/><path d="M279.501 334.052C279.711 215.866 304.952 120.705 335.879 121.505 366.676 122.301 391.525 217.98 391.5 335.67" stroke="#0070C0" stroke-width="2.66667" stroke-linejoin="round" stroke-miterlimit="10" fill="none" fill-rule="evenodd"/><text font-family="Arial,Arial_MSFontService,sans-serif" font-style="italic" font-weight="400" font-size="24" transform="translate(694.064 372)">f</text><path d="M1.16667-4.82447e-07 1.16677 251.576-1.16656 251.576-1.16667 4.82447e-07ZM5.67451 244.16 0.000104671 253.887-5.67431 244.16C-5.99897 243.603-5.81098 242.889-5.25442 242.564-4.69785 242.24-3.98348 242.428-3.65882 242.984L1.00785 250.984-1.00764 250.984 3.65902 242.984C3.98369 242.428 4.69806 242.24 5.25462 242.564 5.81118 242.889 5.99917 243.603 5.67451 244.16Z" fill="#0070C0" transform="matrix(1 0 0 -1 335 337.882)"/><path d="M1.16665-0.00594517 2.41495 244.955 0.0816509 244.967-1.16665 0.00594517ZM6.88484 237.516 1.26008 247.272-4.46383 237.574C-4.79132 237.019-4.60697 236.303-4.05207 235.976-3.49717 235.648-2.78185 235.833-2.45436 236.388L2.25301 244.364 0.237556 244.374 4.8634 236.35C5.18522 235.792 5.89862 235.6 6.45683 235.922 7.01503 236.244 7.20666 236.958 6.88484 237.516Z" fill="#0070C0" transform="matrix(1 0 0 -1 389 333.267)"/><path d="M335.31 347.833 386.249 347.833 386.249 350.167 335.31 350.167ZM342.722 354.674 332.995 349 342.722 343.326C343.279 343.001 343.993 343.189 344.318 343.746 344.642 344.302 344.454 345.016 343.898 345.341L335.898 350.008 335.898 347.992 343.898 352.659C344.454 352.984 344.642 353.698 344.318 354.255 343.993 354.811 343.279 354.999 342.722 354.674ZM378.837 343.326 388.564 349 378.837 354.674C378.28 354.999 377.566 354.811 377.241 354.255 376.917 353.698 377.105 352.984 377.661 352.659L385.661 347.992 385.661 350.008 377.661 345.341C377.105 345.017 376.917 344.302 377.241 343.746 377.566 343.189 378.28 343.001 378.837 343.326Z" fill="#C00000"/><text font-family="Calibri,Calibri_MSFontService,sans-serif" font-style="italic" font-weight="400" font-size="24" transform="translate(342.642 386)">1/T<tspan font-size="16" x="33.1667" y="5">B</tspan></text><path d="M447.503 340.065C447.815 262.197 472.915 199.715 503.565 200.507 534.021 201.295 558.537 264.291 558.5 341.669L503 341.5Z" fill="#558ED5" fill-rule="evenodd" fill-opacity="0.690196"/><path d="M447.503 340.065C447.815 262.197 472.915 199.715 503.565 200.507 534.021 201.295 558.537 264.291 558.5 341.669" stroke="#00B050" stroke-width="2.66667" stroke-linejoin="round" stroke-miterlimit="10" fill="none" fill-rule="evenodd"/><path d="M392.501 337.565C392.707 219.102 417.721 123.712 448.372 124.505 478.895 125.294 503.525 221.198 503.501 339.169" stroke="#0070C0" stroke-width="2.66667" stroke-linejoin="round" stroke-miterlimit="10" fill="none" fill-rule="evenodd"/><path d="M1.16667-4.82447e-07 1.16677 251.576-1.16656 251.576-1.16667 4.82447e-07ZM5.67451 244.16 0.000104671 253.887-5.67431 244.16C-5.99897 243.603-5.81098 242.889-5.25442 242.564-4.69785 242.24-3.98348 242.428-3.65882 242.984L1.00785 250.984-1.00764 250.984 3.65902 242.984C3.98369 242.428 4.69806 242.24 5.25462 242.564 5.81118 242.889 5.99917 243.603 5.67451 244.16Z" fill="#0070C0" transform="matrix(1 0 0 -1 447 339.882)"/><path d="M1.16656-0.0159407 3.22498 150.621 0.89186 150.653-1.16656 0.0159407ZM7.63101 143.148 2.09005 152.952-3.71674 143.303C-4.04898 142.751-3.87076 142.034-3.31869 141.702-2.76662 141.369-2.04975 141.548-1.71751 142.1L3.05803 150.035 1.04273 150.063 5.59966 142C5.91668 141.439 6.62842 141.241 7.18936 141.558 7.7503 141.875 7.94804 142.587 7.63101 143.148Z" fill="#00B050" transform="matrix(1 0 0 -1 502 339.947)"/><path d="M0 0 51.5287 224.188" stroke="#C00000" stroke-width="3" stroke-linejoin="round" stroke-miterlimit="10" stroke-dasharray="9 3" fill="none" fill-rule="evenodd" transform="matrix(1 0 0 -1 240.5 336.688)"/><path d="M507.501 340.565C507.707 222.102 532.721 126.712 563.372 127.505 593.895 128.294 618.525 224.198 618.501 342.169" stroke="#0070C0" stroke-width="2.66667" stroke-linejoin="round" stroke-miterlimit="10" fill="none" fill-rule="evenodd"/><path d="M1.16666-0.00410677 2.04482 249.467-0.288494 249.475-1.16666 0.00410677ZM6.52645 242.04 0.886317 251.787-4.8223 242.08C-5.14891 241.524-4.96344 240.809-4.40802 240.483-3.85261 240.156-3.13758 240.342-2.81096 240.897L1.88383 248.88-0.131637 248.888 4.50684 240.871C4.82954 240.313 5.54324 240.123 6.10094 240.446 6.65864 240.768 6.84915 241.482 6.52645 242.04Z" fill="#0070C0" transform="matrix(1 0 0 -1 558 340.782)"/><path d="M291.5 112.5 463.182 112.5" stroke="#C00000" stroke-width="3" stroke-linejoin="round" stroke-miterlimit="10" fill="none" fill-rule="evenodd"/><path d="M462.5 112.5 504.099 183.215" stroke="#C00000" stroke-width="3.33333" stroke-linejoin="round" stroke-miterlimit="10" fill="none" fill-rule="evenodd"/><path d="M0 0 35.0742 69.1113" stroke="#C00000" stroke-width="3.33333" stroke-linejoin="round" stroke-miterlimit="10" fill="none" fill-rule="evenodd" transform="matrix(1 0 0 -1 505.5 181.611)"/><path d="M543.5 113.5 599.874 113.5" stroke="#C00000" stroke-width="3" stroke-linejoin="round" stroke-miterlimit="10" fill="none" fill-rule="evenodd"/><path d="M600.5 114.5 651.303 340.703" stroke="#C00000" stroke-width="3" stroke-linejoin="round" stroke-miterlimit="10" stroke-dasharray="9 3" fill="none" fill-rule="evenodd"/><text fill="#984807" font-family="Calibri,Calibri_MSFontService,sans-serif" font-weight="400" font-size="24" transform="translate(468.176 68)">Fading</text><path d="M502.167 80.5001 502.167 118.339 500.833 118.339 500.833 80.5001ZM505.5 117.006 501.5 125.006 497.5 117.006Z" fill="#C00000"/><text fill="#0070C0" font-family="Calibri,Calibri_MSFontService,sans-serif" font-weight="400" font-size="24" transform="translate(465.316 407)">Affected<tspan x="87.74" y="0">subcarrier</tspan></text><path d="M117 339 691.748 339 691.748 341 117 341ZM690.415 336 698.415 340 690.415 344Z"/><path d="M0.496947-0.0551686 5.15223 41.8787 4.15834 41.989-0.496947 0.0551686ZM8.48374 40.1673 5.39087 48.5598 0.532591 41.05Z" fill="#4A7EBB" transform="matrix(-1 -8.74228e-08 -8.74228e-08 1 527.891 330.5)"/><text fill="#984807" font-family="Calibri,Calibri_MSFontService,sans-serif" font-weight="400" font-size="24" transform="translate(160.908 26)">Channel <tspan x="85.3333" y="0">transmission</tspan><tspan x="0" y="29">characteristic</tspan></text><path d="M266.854 70.2046 290.152 95.2055 288.445 96.7963 265.146 71.7954ZM291.316 92.2985 293.843 100.878 285.463 97.7525Z" fill="#C00000"/></g></svg>