<svg width="949" height="327" xmlns="http://www.w3.org/2000/svg" xmlns:xlink="http://www.w3.org/1999/xlink" overflow="hidden"><defs><clipPath id="clip0"><rect x="-18" y="70" width="949" height="327"/></clipPath></defs><g clip-path="url(#clip0)" transform="translate(18 -70)"><rect x="108.5" y="126.5" width="86" height="61" stroke="#385D8A" stroke-width="2.66667" stroke-linejoin="round" stroke-miterlimit="10" fill="none"/><rect x="229.5" y="126.5" width="92" height="60" stroke="#385D8A" stroke-width="2.66667" stroke-linejoin="round" stroke-miterlimit="10" fill="none"/><path d="M2.99133e-06-1 29.7638-0.999911 29.7638 1.00009-2.99133e-06 1ZM29.7638 8.90331e-05 27.0971-3.99992 35.0971 0.000104987 27.0971 4.00008Z" fill="#4A7EBB" transform="matrix(1 0 0 -1 194 156)"/><text font-family="Calibri,Calibri_MSFontService,sans-serif" font-weight="400" font-size="24" transform="translate(131.781 164)">DSP<tspan x="124.518" y="-1">D/A</tspan></text><path d="M63 155 103.026 155 103.026 157 63 157ZM103.026 156 100.359 152 108.359 156 100.359 160Z" fill="#4A7EBB"/><text font-family="Calibri,Calibri_MSFontService,sans-serif" font-weight="400" font-size="24" transform="translate(-2.69438 162)">Signal</text><path d="M321 157 362.576 157" stroke="#4A7EBB" stroke-width="2.33333" stroke-linejoin="round" stroke-miterlimit="10" fill="none" fill-rule="evenodd"/><path d="M0 0 22.6797 19.3875" stroke="#4A7EBB" stroke-width="2.33333" stroke-linejoin="round" stroke-miterlimit="10" fill="none" fill-rule="evenodd" transform="matrix(1 0 0 -1 362 155.388)"/><path d="M362 157 384.68 176.388" stroke="#4A7EBB" stroke-width="2.33333" stroke-linejoin="round" stroke-miterlimit="10" fill="none" fill-rule="evenodd"/><path d="M0 0 51.3477 0.000104987" stroke="#4A7EBB" stroke-width="2.33333" stroke-linejoin="round" stroke-miterlimit="10" fill="none" fill-rule="evenodd" transform="matrix(-1 -8.74228e-08 -8.74228e-08 1 613.348 312)"/><path d="M561.68 312.388 539 293" stroke="#4A7EBB" stroke-width="2.33333" stroke-linejoin="round" stroke-miterlimit="10" fill="none" fill-rule="evenodd"/><path d="M0 0 22.6797 19.3875" stroke="#4A7EBB" stroke-width="2.33333" stroke-linejoin="round" stroke-miterlimit="10" fill="none" fill-rule="evenodd" transform="matrix(-1 -8.74228e-08 -8.74228e-08 1 561.68 312)"/><rect x="613.5" y="283.5" width="86" height="60" stroke="#385D8A" stroke-width="2.66667" stroke-linejoin="round" stroke-miterlimit="10" fill="none"/><rect x="734.5" y="282.5" width="92" height="61" stroke="#385D8A" stroke-width="2.66667" stroke-linejoin="round" stroke-miterlimit="10" fill="none"/><path d="M2.99133e-06-1 29.7638-0.999911 29.7638 1.00009-2.99133e-06 1ZM29.7638 8.90331e-05 27.0971-3.99992 35.0971 0.000104987 27.0971 4.00008Z" fill="#4A7EBB" transform="matrix(1 0 0 -1 699 312)"/><text font-family="Calibri,Calibri_MSFontService,sans-serif" font-weight="400" font-size="24" transform="translate(636.255 319)">A/D<tspan x="124.518" y="-1">DSP</tspan></text><path d="M826 311 866.026 311 866.026 313 826 313ZM866.026 312 863.359 308 871.359 312 863.359 316Z" fill="#4A7EBB"/><text font-family="Calibri,Calibri_MSFontService,sans-serif" font-weight="400" font-size="24" transform="translate(858.501 299)">Signal</text><rect x="88" y="77" width="257" height="159" stroke="#385D8A" stroke-width="2" stroke-linejoin="round" stroke-miterlimit="10" stroke-dasharray="8 6" fill="none"/><rect x="593" y="236" width="256" height="159" stroke="#385D8A" stroke-width="2" stroke-linejoin="round" stroke-miterlimit="10" stroke-dasharray="8 6" fill="none"/><text font-family="Calibri,Calibri_MSFontService,sans-serif" font-weight="400" font-size="24" transform="matrix(0.739789 0.672838 -0.672838 0.739789 419.459 152)">EM wave <tspan font-family="Symbol,Symbol_MSFontService,sans-serif" x="94.3791" y="0.673325"></tspan><tspan x="123.126" y="0.211369">beam</tspan></text><text font-family="Calibri,Calibri_MSFontService,sans-serif" font-weight="700" font-size="27" transform="translate(309.018 103)">T<tspan font-size="18" x="13.1667" y="6">X</tspan><tspan x="293.086" y="163">R</tspan><tspan font-size="18" x="308.086" y="169">X</tspan></text><path d="M388.731 163.026C394.879 156.727 431.584 182.58 470.714 220.77 509.845 258.96 536.583 295.025 530.435 301.324 524.288 307.623 487.582 281.77 448.452 243.58 409.322 205.39 382.584 169.325 388.731 163.026Z" stroke="#00B0F0" stroke-width="2.66667" stroke-linejoin="round" stroke-miterlimit="10" fill="#D9D9D9" fill-rule="evenodd"/><path d="M378.41 197.113 503.409 318.231 502.249 319.428 377.25 198.31ZM377.83 197.711 376.962 202.44 374 194 382.529 196.694ZM502.829 318.829 503.697 314.101 506.659 322.54 498.13 319.846Z"/><text font-family="Calibri,Calibri_MSFontService,sans-serif" font-style="italic" font-weight="400" font-size="27" transform="translate(414.572 281)">R</text></g></svg>