<svg width="781" height="544" xmlns="http://www.w3.org/2000/svg" xmlns:xlink="http://www.w3.org/1999/xlink" overflow="hidden"><defs><clipPath id="clip0"><rect x="-21" y="34" width="781" height="544"/></clipPath></defs><g clip-path="url(#clip0)" transform="translate(21 -34)"><path d="M0.00299893-0.833328 689.729 1.64882 689.723 3.31547-0.00299893 0.833328ZM688.408-1.52262 696.394 2.50614 688.379 6.47733Z" fill="#002060" transform="matrix(1 0 0 -1 -20 344.506)"/><text font-family="Arial,Arial_MSFontService,sans-serif" font-weight="400" font-size="24" transform="translate(311.537 479)">2<tspan font-style="italic" x="-43.4192" y="-415">z</tspan><tspan font-style="italic" x="358.868" y="-91">y</tspan><tspan font-style="italic" x="9.37" y="-366">θ</tspan></text><path d="M299.024 123.001 305.586 123.313 312.072 124.255 318.433 125.827 324.54 127.966 330.458 130.67 336.125 133.942 341.476 137.717 342.437 138.553 341.779 139.306 340.899 138.534 335.625 134.808 330.042 131.58 324.21 128.909 318.192 126.798 311.928 125.245 305.539 124.312 298.976 123.999ZM342.108 138.929 342.731 134.162 346.125 142.438 337.468 140.188Z" fill="#4A7EBB"/><path d="M0.833333-1.69372e-07 0.833437 509.882-0.83323 509.882-0.833333 1.69372e-07ZM4.0001 508.549 0.000104987 516.549-3.9999 508.549Z" fill="#002060" transform="matrix(1 0 0 -1 298 577.549)"/><path d="M293.5 245C293.5 241.962 295.962 239.5 299 239.5 302.038 239.5 304.5 241.962 304.5 245 304.5 248.038 302.038 250.5 299 250.5 295.962 250.5 293.5 248.038 293.5 245Z" stroke="#385D8A" stroke-width="2.66667" stroke-linejoin="round" stroke-miterlimit="10" fill="#00B0F0" fill-rule="evenodd"/><path d="M293.5 456C293.5 452.962 295.962 450.5 299 450.5 302.038 450.5 304.5 452.962 304.5 456 304.5 459.038 302.038 461.5 299 461.5 295.962 461.5 293.5 459.038 293.5 456Z" stroke="#385D8A" stroke-width="2.66667" stroke-linejoin="round" stroke-miterlimit="10" fill="#00B0F0" fill-rule="evenodd"/><path d="M211.5 237.5C211.5 191.66 249.332 154.5 296 154.5 342.668 154.5 380.5 191.66 380.5 237.5 380.5 283.34 342.668 320.5 296 320.5 249.332 320.5 211.5 283.34 211.5 237.5Z" stroke="#000000" stroke-width="1.33333" stroke-linejoin="round" stroke-miterlimit="10" stroke-dasharray="5.33333 4" fill="none" fill-rule="evenodd"/><path d="M215.5 456C215.5 409.884 252.66 372.5 298.5 372.5 344.34 372.5 381.5 409.884 381.5 456 381.5 502.116 344.34 539.5 298.5 539.5 252.66 539.5 215.5 502.116 215.5 456Z" stroke="#000000" stroke-width="1.33333" stroke-linejoin="round" stroke-miterlimit="10" stroke-dasharray="5.33333 4" fill="none" fill-rule="evenodd"/><path d="M61.5001 343C61.5001 266.509 114.33 204.5 179.5 204.5 244.67 204.5 297.5 266.509 297.5 343 297.5 419.491 244.67 481.5 179.5 481.5 114.33 481.5 61.5001 419.491 61.5001 343Z" stroke="#385D8A" stroke-width="2.66667" stroke-linejoin="round" stroke-miterlimit="10" fill="none" fill-rule="evenodd"/><text font-family="Cambria Math,Cambria Math_MSFontService,sans-serif" font-weight="400" font-size="24" transform="translate(240.933 490)">𝐼∠0°<tspan x="0" y="-272">𝐼∠0°</tspan><tspan font-family="Arial,Arial_MSFontService,sans-serif" x="68.6159" y="-251">1</tspan><tspan x="-205.862" y="-321">𝑑</tspan><tspan x="-184.602" y="-321">=</tspan><tspan x="-159.729" y="-340">𝜆</tspan><tspan x="-159.935" y="-305">2</tspan></text><path d="M81.0715 160.633 94.0715 160.633 94.0715 162.633 81.0715 162.633Z" fill-rule="evenodd"/><text fill="#0070C0" font-family="Ericsson Hilda,Ericsson Hilda_MSFontService,sans-serif" font-weight="400" font-size="24" transform="translate(611.321 273)">RESULTING <tspan x="0" y="29">PATTERN</tspan></text><path d="M0.190626-0.462236 59.0084 23.7942 58.6271 24.7187-0.190626 0.462236ZM59.1101 20.0502 64.9809 26.7981 56.0601 27.446Z" fill="#4A7EBB" transform="matrix(1 0 0 -1 540.5 289.298)"/><path d="M298.5 347C298.5 270.509 351.33 208.5 416.5 208.5 481.67 208.5 534.5 270.509 534.5 347 534.5 423.491 481.67 485.5 416.5 485.5 351.33 485.5 298.5 423.491 298.5 347Z" stroke="#385D8A" stroke-width="2.66667" stroke-linejoin="round" stroke-miterlimit="10" fill="none" fill-rule="evenodd"/></g></svg>