<svg width="718" height="672" xmlns="http://www.w3.org/2000/svg" xmlns:xlink="http://www.w3.org/1999/xlink" overflow="hidden"><defs><clipPath id="clip0"><rect x="123" y="17" width="718" height="672"/></clipPath></defs><g clip-path="url(#clip0)" transform="translate(-123 -17)"><path d="M0.00299893-0.833328 689.729 1.64882 689.723 3.31547-0.00299893 0.833328ZM688.408-1.52262 696.394 2.50614 688.379 6.47733Z" fill="#002060" transform="matrix(1 0 0 -1 124 385.506)"/><text font-family="Arial,Arial_MSFontService,sans-serif" font-weight="400" font-size="24" transform="translate(456.466 532)">2<tspan font-style="italic" x="-45.6371" y="-484">z</tspan><tspan font-style="italic" x="357.702" y="-115">y</tspan><tspan font-style="italic" x="7.73682" y="-484">θ</tspan></text><path d="M442.524 58.0006 449.024 58.3131 455.51 59.2553 461.866 60.7636 468.035 62.8387 473.954 65.481 479.618 68.6255 484.973 72.3393 485.881 73.1066 485.234 73.8692 484.402 73.1608 479.132 69.4996 473.546 66.3941 467.715 63.7864 461.634 61.7365 455.366 60.2448 448.976 59.312 442.476 58.9995ZM485.558 73.4879 486.111 68.7125 489.625 76.9376 480.937 74.8137Z" fill="#4A7EBB"/><path d="M0.833333-1.51279e-07 0.833437 571.66-0.83323 571.66-0.833333 1.51279e-07ZM4.0001 570.327 0.000104987 578.327-3.9999 570.327Z" fill="#002060" transform="matrix(1 0 0 -1 442 618.327)"/><path d="M436.5 286C436.5 282.962 439.186 280.5 442.5 280.5 445.814 280.5 448.5 282.962 448.5 286 448.5 289.038 445.814 291.5 442.5 291.5 439.186 291.5 436.5 289.038 436.5 286Z" stroke="#385D8A" stroke-width="2.66667" stroke-linejoin="round" stroke-miterlimit="10" fill="#00B0F0" fill-rule="evenodd"/><path d="M436.5 497C436.5 493.962 439.186 491.5 442.5 491.5 445.814 491.5 448.5 493.962 448.5 497 448.5 500.038 445.814 502.5 442.5 502.5 439.186 502.5 436.5 500.038 436.5 497Z" stroke="#385D8A" stroke-width="2.66667" stroke-linejoin="round" stroke-miterlimit="10" fill="#00B0F0" fill-rule="evenodd"/><path d="M368.5 285C368.5 243.303 402.303 209.5 444 209.5 485.698 209.5 519.5 243.303 519.5 285 519.5 326.698 485.698 360.5 444 360.5 402.303 360.5 368.5 326.698 368.5 285Z" stroke="#000000" stroke-width="1.33333" stroke-linejoin="round" stroke-miterlimit="10" stroke-dasharray="5.33333 4" fill="none" fill-rule="evenodd"/><path d="M368.5 497C368.5 455.303 402.303 421.5 444 421.5 485.698 421.5 519.5 455.303 519.5 497 519.5 538.698 485.698 572.5 444 572.5 402.303 572.5 368.5 538.698 368.5 497Z" stroke="#000000" stroke-width="1.33333" stroke-linejoin="round" stroke-miterlimit="10" stroke-dasharray="5.33333 4" fill="none" fill-rule="evenodd"/><path d="M444 81.5001C489.011 81.5001 525.5 149.329 525.5 233 525.5 316.671 489.011 384.5 444 384.5 398.989 384.5 362.5 316.671 362.5 233 362.5 149.329 398.989 81.5001 444 81.5001Z" stroke="#385D8A" stroke-width="2.66667" stroke-linejoin="round" stroke-miterlimit="10" fill="none" fill-rule="evenodd"/><path d="M443 687.5C397.989 687.5 361.5 619.671 361.5 536 361.5 452.329 397.989 384.5 443 384.5 488.011 384.5 524.5 452.329 524.5 536 524.5 619.671 488.011 687.5 443 687.5Z" stroke="#385D8A" stroke-width="2.66667" stroke-linejoin="round" stroke-miterlimit="10" fill="none" fill-rule="evenodd"/><text font-family="Cambria Math,Cambria Math_MSFontService,sans-serif" font-weight="400" font-size="24" transform="translate(376.407 502)">𝐼∠0°<tspan font-size="27" x="-29.3897" y="-210">𝐼∠180°</tspan><tspan font-family="Arial,Arial_MSFontService,sans-serif" x="82.4497" y="-202">1</tspan><tspan x="200.86" y="-151">𝑑</tspan><tspan x="222.12" y="-151">=</tspan><tspan x="246.993" y="-169">𝜆</tspan><tspan x="246.787" y="-135">2</tspan></text><path d="M623.267 343.3 636.267 343.3 636.267 345.3 623.267 345.3Z" fill-rule="evenodd"/><text fill="#0070C0" font-family="Ericsson Hilda,Ericsson Hilda_MSFontService,sans-serif" font-weight="400" font-size="24" transform="translate(600.223 202)">RESULTING <tspan x="0" y="29">PATTERN</tspan></text><path d="M0.190626-0.462236 59.0084 23.7942 58.6271 24.7187-0.190626 0.462236ZM59.1101 20.0502 64.9809 26.7981 56.0601 27.446Z" fill="#4A7EBB" transform="matrix(1 0 0 -1 529.5 218.298)"/></g></svg>