<svg width="852" height="460" xmlns="http://www.w3.org/2000/svg" xmlns:xlink="http://www.w3.org/1999/xlink" overflow="hidden"><defs><clipPath id="clip0"><rect x="66" y="55" width="852" height="460"/></clipPath></defs><g clip-path="url(#clip0)" transform="translate(-66 -55)"><path d="M277.5 270C277.5 265.858 280.858 262.5 285 262.5 289.142 262.5 292.5 265.858 292.5 270 292.5 274.142 289.142 277.5 285 277.5 280.858 277.5 277.5 274.142 277.5 270Z" stroke="#385D8A" stroke-width="2.66667" stroke-linejoin="round" stroke-miterlimit="10" fill="#4F81BD" fill-rule="evenodd"/><path d="M344.5 270C344.5 265.858 347.858 262.5 352 262.5 356.142 262.5 359.5 265.858 359.5 270 359.5 274.142 356.142 277.5 352 277.5 347.858 277.5 344.5 274.142 344.5 270Z" stroke="#385D8A" stroke-width="2.66667" stroke-linejoin="round" stroke-miterlimit="10" fill="#4F81BD" fill-rule="evenodd"/><path d="M411.5 270C411.5 265.858 414.858 262.5 419 262.5 423.142 262.5 426.5 265.858 426.5 270 426.5 274.142 423.142 277.5 419 277.5 414.858 277.5 411.5 274.142 411.5 270Z" stroke="#385D8A" stroke-width="2.66667" stroke-linejoin="round" stroke-miterlimit="10" fill="#4F81BD" fill-rule="evenodd"/><path d="M478.5 270C478.5 265.858 481.858 262.5 486 262.5 490.142 262.5 493.5 265.858 493.5 270 493.5 274.142 490.142 277.5 486 277.5 481.858 277.5 478.5 274.142 478.5 270Z" stroke="#385D8A" stroke-width="2.66667" stroke-linejoin="round" stroke-miterlimit="10" fill="#4F81BD" fill-rule="evenodd"/><path d="M545.5 270C545.5 265.858 548.858 262.5 553 262.5 557.142 262.5 560.5 265.858 560.5 270 560.5 274.142 557.142 277.5 553 277.5 548.858 277.5 545.5 274.142 545.5 270Z" stroke="#385D8A" stroke-width="2.66667" stroke-linejoin="round" stroke-miterlimit="10" fill="#4F81BD" fill-rule="evenodd"/><path d="M612.5 270C612.5 265.858 615.858 262.5 620 262.5 624.142 262.5 627.5 265.858 627.5 270 627.5 274.142 624.142 277.5 620 277.5 615.858 277.5 612.5 274.142 612.5 270Z" stroke="#385D8A" stroke-width="2.66667" stroke-linejoin="round" stroke-miterlimit="10" fill="#4F81BD" fill-rule="evenodd"/><path d="M679.5 270C679.5 265.858 682.858 262.5 687 262.5 691.142 262.5 694.5 265.858 694.5 270 694.5 274.142 691.142 277.5 687 277.5 682.858 277.5 679.5 274.142 679.5 270Z" stroke="#385D8A" stroke-width="2.66667" stroke-linejoin="round" stroke-miterlimit="10" fill="#4F81BD" fill-rule="evenodd"/><path d="M746.5 270C746.5 265.858 749.858 262.5 754 262.5 758.142 262.5 761.5 265.858 761.5 270 761.5 274.142 758.142 277.5 754 277.5 749.858 277.5 746.5 274.142 746.5 270Z" stroke="#385D8A" stroke-width="2.66667" stroke-linejoin="round" stroke-miterlimit="10" fill="#4F81BD" fill-rule="evenodd"/><path d="M191.5 269 896.71 269 896.71 270 191.5 270ZM895.376 265.5 903.376 269.5 895.376 273.5Z" fill="#4A7EBB"/><path d="M0.5-1.57811e-07 0.500103 325.969-0.499897 325.969-0.5 1.57811e-07ZM4.0001 324.635 0.000104987 332.635-3.9999 324.635Z" fill="#4A7EBB" transform="matrix(1 0 0 -1 515.5 421.135)"/><text font-family="Calibri,Calibri_MSFontService,sans-serif" font-style="italic" font-weight="400" font-size="27" transform="translate(531.423 88)">y</text><path d="M292.167 410.833 345.792 410.833 345.792 412.167 292.167 412.167ZM293.5 415.5 285.5 411.5 293.5 407.5ZM344.459 407.5 352.459 411.5 344.459 415.5Z" fill="#4A7EBB"/><text font-family="Calibri,Calibri_MSFontService,sans-serif" font-style="italic" font-weight="400" font-size="24" transform="translate(311.221 440)">d<tspan font-style="normal" font-size="16" x="12.3333" y="5">x</tspan></text><path d="M0.666681 6.66666 0.666757 41.6273-0.666576 41.6273-0.666652 6.66667ZM-3.99998 8.00001 0 0 4.00002 7.99999ZM4.00009 40.294 0.000104987 48.294-3.99991 40.294Z" fill="#4A7EBB" transform="matrix(-1 -8.74228e-08 -8.74228e-08 1 239.5 173.5)"/><text font-family="Calibri,Calibri_MSFontService,sans-serif" font-style="italic" font-weight="400" font-size="24" transform="translate(203.722 202)">d<tspan font-style="normal" font-size="16" x="12.3333" y="5">y</tspan></text><rect x="252.5" y="137.5" width="539" height="265" stroke="#7F7F7F" stroke-width="2.66667" stroke-linejoin="round" stroke-miterlimit="10" stroke-dasharray="10.6667 8" fill="none"/><path d="M256.169 410.853 279.794 410.924 279.79 412.257 256.165 412.187ZM257.488 415.524 249.5 411.5 257.512 407.524ZM278.471 407.587 286.459 411.611 278.447 415.587Z" fill="#4A7EBB"/><text font-family="Calibri,Calibri_MSFontService,sans-serif" font-style="italic" font-weight="400" font-size="24" transform="translate(241.236 441)">d<tspan font-size="16" x="12.3333" y="5">x</tspan><tspan font-style="normal" x="19.3333" y="0">/2</tspan><tspan x="516.901" y="-4">d</tspan><tspan font-size="16" x="529.234" y="1">x</tspan><tspan font-style="normal" x="536.234" y="-4">/2</tspan></text><path d="M768.167 413 788.541 413 788.541 414 768.167 414ZM769.5 417.5 761.5 413.5 769.5 409.5ZM787.208 409.5 795.208 413.5 787.208 417.5Z" fill="#4A7EBB"/><path d="M252.167 458.833 788.645 458.833 788.645 460.167 252.167 460.167ZM253.5 463.5 245.5 459.5 253.5 455.5ZM787.312 455.5 795.312 459.5 787.312 463.5Z" fill="#4A7EBB"/><text font-family="Calibri,Calibri_MSFontService,sans-serif" font-style="italic" font-weight="400" font-size="24" transform="translate(473.489 484)">L<tspan font-size="16" x="10.1667" y="5">x</tspan><tspan font-style="normal" x="17.1667" y="0">=</tspan>M<tspan font-family="Symbol,Symbol_MSFontService,sans-serif" font-style="normal" x="49.6667" y="0"></tspan>d<tspan font-style="normal" font-size="16" x="68" y="5">x</tspan></text><path d="M352.5 374.5 352.5 411.824" stroke="#4A7EBB" stroke-linejoin="round" stroke-miterlimit="10" fill="none" fill-rule="evenodd"/><path d="M0 0 0.000104987 36.0034" stroke="#4A7EBB" stroke-linejoin="round" stroke-miterlimit="10" fill="none" fill-rule="evenodd" transform="matrix(-1 -8.74228e-08 -8.74228e-08 1 285.5 374.5)"/><path d="M0.682151 6.6651 0.721415 23.568-0.611915 23.5711-0.651179 6.6682ZM-3.98141 8.00927 0 0 4.01857 7.99069ZM4.05164 22.2269 0.0702362 30.2362-3.94834 22.2455Z" fill="#4A7EBB" transform="matrix(-1 -8.74228e-08 -8.74228e-08 1 242.57 372.5)"/><text font-family="Calibri,Calibri_MSFontService,sans-serif" font-style="italic" font-weight="400" font-size="24" transform="translate(192.368 392)">d<tspan font-size="16" x="12.3333" y="5">y</tspan><tspan font-style="normal" x="19.5" y="0">/2</tspan></text><path d="M277.5 174C277.5 169.858 280.858 166.5 285 166.5 289.142 166.5 292.5 169.858 292.5 174 292.5 178.142 289.142 181.5 285 181.5 280.858 181.5 277.5 178.142 277.5 174Z" stroke="#385D8A" stroke-width="2.66667" stroke-linejoin="round" stroke-miterlimit="10" fill="#4F81BD" fill-rule="evenodd"/><path d="M344.5 174C344.5 169.858 347.858 166.5 352 166.5 356.142 166.5 359.5 169.858 359.5 174 359.5 178.142 356.142 181.5 352 181.5 347.858 181.5 344.5 178.142 344.5 174Z" stroke="#385D8A" stroke-width="2.66667" stroke-linejoin="round" stroke-miterlimit="10" fill="#4F81BD" fill-rule="evenodd"/><path d="M411.5 174C411.5 169.858 414.858 166.5 419 166.5 423.142 166.5 426.5 169.858 426.5 174 426.5 178.142 423.142 181.5 419 181.5 414.858 181.5 411.5 178.142 411.5 174Z" stroke="#385D8A" stroke-width="2.66667" stroke-linejoin="round" stroke-miterlimit="10" fill="#4F81BD" fill-rule="evenodd"/><path d="M478.5 174C478.5 169.858 481.858 166.5 486 166.5 490.142 166.5 493.5 169.858 493.5 174 493.5 178.142 490.142 181.5 486 181.5 481.858 181.5 478.5 178.142 478.5 174Z" stroke="#385D8A" stroke-width="2.66667" stroke-linejoin="round" stroke-miterlimit="10" fill="#4F81BD" fill-rule="evenodd"/><path d="M545.5 174C545.5 169.858 548.858 166.5 553 166.5 557.142 166.5 560.5 169.858 560.5 174 560.5 178.142 557.142 181.5 553 181.5 548.858 181.5 545.5 178.142 545.5 174Z" stroke="#385D8A" stroke-width="2.66667" stroke-linejoin="round" stroke-miterlimit="10" fill="#4F81BD" fill-rule="evenodd"/><path d="M612.5 174C612.5 169.858 615.858 166.5 620 166.5 624.142 166.5 627.5 169.858 627.5 174 627.5 178.142 624.142 181.5 620 181.5 615.858 181.5 612.5 178.142 612.5 174Z" stroke="#385D8A" stroke-width="2.66667" stroke-linejoin="round" stroke-miterlimit="10" fill="#4F81BD" fill-rule="evenodd"/><path d="M679.5 174C679.5 169.858 682.858 166.5 687 166.5 691.142 166.5 694.5 169.858 694.5 174 694.5 178.142 691.142 181.5 687 181.5 682.858 181.5 679.5 178.142 679.5 174Z" stroke="#385D8A" stroke-width="2.66667" stroke-linejoin="round" stroke-miterlimit="10" fill="#4F81BD" fill-rule="evenodd"/><path d="M746.5 174C746.5 169.858 749.858 166.5 754 166.5 758.142 166.5 761.5 169.858 761.5 174 761.5 178.142 758.142 181.5 754 181.5 749.858 181.5 746.5 178.142 746.5 174Z" stroke="#385D8A" stroke-width="2.66667" stroke-linejoin="round" stroke-miterlimit="10" fill="#4F81BD" fill-rule="evenodd"/><path d="M277.5 222C277.5 217.858 280.858 214.5 285 214.5 289.142 214.5 292.5 217.858 292.5 222 292.5 226.142 289.142 229.5 285 229.5 280.858 229.5 277.5 226.142 277.5 222Z" stroke="#385D8A" stroke-width="2.66667" stroke-linejoin="round" stroke-miterlimit="10" fill="#4F81BD" fill-rule="evenodd"/><path d="M344.5 222C344.5 217.858 347.858 214.5 352 214.5 356.142 214.5 359.5 217.858 359.5 222 359.5 226.142 356.142 229.5 352 229.5 347.858 229.5 344.5 226.142 344.5 222Z" stroke="#385D8A" stroke-width="2.66667" stroke-linejoin="round" stroke-miterlimit="10" fill="#4F81BD" fill-rule="evenodd"/><path d="M411.5 222C411.5 217.858 414.858 214.5 419 214.5 423.142 214.5 426.5 217.858 426.5 222 426.5 226.142 423.142 229.5 419 229.5 414.858 229.5 411.5 226.142 411.5 222Z" stroke="#385D8A" stroke-width="2.66667" stroke-linejoin="round" stroke-miterlimit="10" fill="#4F81BD" fill-rule="evenodd"/><path d="M478.5 222C478.5 217.858 481.858 214.5 486 214.5 490.142 214.5 493.5 217.858 493.5 222 493.5 226.142 490.142 229.5 486 229.5 481.858 229.5 478.5 226.142 478.5 222Z" stroke="#385D8A" stroke-width="2.66667" stroke-linejoin="round" stroke-miterlimit="10" fill="#4F81BD" fill-rule="evenodd"/><path d="M545.5 222C545.5 217.858 548.858 214.5 553 214.5 557.142 214.5 560.5 217.858 560.5 222 560.5 226.142 557.142 229.5 553 229.5 548.858 229.5 545.5 226.142 545.5 222Z" stroke="#385D8A" stroke-width="2.66667" stroke-linejoin="round" stroke-miterlimit="10" fill="#4F81BD" fill-rule="evenodd"/><path d="M612.5 222C612.5 217.858 615.858 214.5 620 214.5 624.142 214.5 627.5 217.858 627.5 222 627.5 226.142 624.142 229.5 620 229.5 615.858 229.5 612.5 226.142 612.5 222Z" stroke="#385D8A" stroke-width="2.66667" stroke-linejoin="round" stroke-miterlimit="10" fill="#4F81BD" fill-rule="evenodd"/><path d="M679.5 222C679.5 217.858 682.858 214.5 687 214.5 691.142 214.5 694.5 217.858 694.5 222 694.5 226.142 691.142 229.5 687 229.5 682.858 229.5 679.5 226.142 679.5 222Z" stroke="#385D8A" stroke-width="2.66667" stroke-linejoin="round" stroke-miterlimit="10" fill="#4F81BD" fill-rule="evenodd"/><path d="M746.5 222C746.5 217.858 749.858 214.5 754 214.5 758.142 214.5 761.5 217.858 761.5 222 761.5 226.142 758.142 229.5 754 229.5 749.858 229.5 746.5 226.142 746.5 222Z" stroke="#385D8A" stroke-width="2.66667" stroke-linejoin="round" stroke-miterlimit="10" fill="#4F81BD" fill-rule="evenodd"/><path d="M277.5 318C277.5 313.858 280.858 310.5 285 310.5 289.142 310.5 292.5 313.858 292.5 318 292.5 322.142 289.142 325.5 285 325.5 280.858 325.5 277.5 322.142 277.5 318Z" stroke="#385D8A" stroke-width="2.66667" stroke-linejoin="round" stroke-miterlimit="10" fill="#4F81BD" fill-rule="evenodd"/><path d="M344.5 318C344.5 313.858 347.858 310.5 352 310.5 356.142 310.5 359.5 313.858 359.5 318 359.5 322.142 356.142 325.5 352 325.5 347.858 325.5 344.5 322.142 344.5 318Z" stroke="#385D8A" stroke-width="2.66667" stroke-linejoin="round" stroke-miterlimit="10" fill="#4F81BD" fill-rule="evenodd"/><path d="M411.5 318C411.5 313.858 414.858 310.5 419 310.5 423.142 310.5 426.5 313.858 426.5 318 426.5 322.142 423.142 325.5 419 325.5 414.858 325.5 411.5 322.142 411.5 318Z" stroke="#385D8A" stroke-width="2.66667" stroke-linejoin="round" stroke-miterlimit="10" fill="#4F81BD" fill-rule="evenodd"/><path d="M478.5 318C478.5 313.858 481.858 310.5 486 310.5 490.142 310.5 493.5 313.858 493.5 318 493.5 322.142 490.142 325.5 486 325.5 481.858 325.5 478.5 322.142 478.5 318Z" stroke="#385D8A" stroke-width="2.66667" stroke-linejoin="round" stroke-miterlimit="10" fill="#4F81BD" fill-rule="evenodd"/><path d="M545.5 318C545.5 313.858 548.858 310.5 553 310.5 557.142 310.5 560.5 313.858 560.5 318 560.5 322.142 557.142 325.5 553 325.5 548.858 325.5 545.5 322.142 545.5 318Z" stroke="#385D8A" stroke-width="2.66667" stroke-linejoin="round" stroke-miterlimit="10" fill="#4F81BD" fill-rule="evenodd"/><path d="M612.5 318C612.5 313.858 615.858 310.5 620 310.5 624.142 310.5 627.5 313.858 627.5 318 627.5 322.142 624.142 325.5 620 325.5 615.858 325.5 612.5 322.142 612.5 318Z" stroke="#385D8A" stroke-width="2.66667" stroke-linejoin="round" stroke-miterlimit="10" fill="#4F81BD" fill-rule="evenodd"/><path d="M679.5 318C679.5 313.858 682.858 310.5 687 310.5 691.142 310.5 694.5 313.858 694.5 318 694.5 322.142 691.142 325.5 687 325.5 682.858 325.5 679.5 322.142 679.5 318Z" stroke="#385D8A" stroke-width="2.66667" stroke-linejoin="round" stroke-miterlimit="10" fill="#4F81BD" fill-rule="evenodd"/><path d="M746.5 318C746.5 313.858 749.858 310.5 754 310.5 758.142 310.5 761.5 313.858 761.5 318 761.5 322.142 758.142 325.5 754 325.5 749.858 325.5 746.5 322.142 746.5 318Z" stroke="#385D8A" stroke-width="2.66667" stroke-linejoin="round" stroke-miterlimit="10" fill="#4F81BD" fill-rule="evenodd"/><path d="M277.5 366C277.5 361.858 280.858 358.5 285 358.5 289.142 358.5 292.5 361.858 292.5 366 292.5 370.142 289.142 373.5 285 373.5 280.858 373.5 277.5 370.142 277.5 366Z" stroke="#385D8A" stroke-width="2.66667" stroke-linejoin="round" stroke-miterlimit="10" fill="#4F81BD" fill-rule="evenodd"/><path d="M344.5 366C344.5 361.858 347.858 358.5 352 358.5 356.142 358.5 359.5 361.858 359.5 366 359.5 370.142 356.142 373.5 352 373.5 347.858 373.5 344.5 370.142 344.5 366Z" stroke="#385D8A" stroke-width="2.66667" stroke-linejoin="round" stroke-miterlimit="10" fill="#4F81BD" fill-rule="evenodd"/><path d="M411.5 366C411.5 361.858 414.858 358.5 419 358.5 423.142 358.5 426.5 361.858 426.5 366 426.5 370.142 423.142 373.5 419 373.5 414.858 373.5 411.5 370.142 411.5 366Z" stroke="#385D8A" stroke-width="2.66667" stroke-linejoin="round" stroke-miterlimit="10" fill="#4F81BD" fill-rule="evenodd"/><path d="M478.5 366C478.5 361.858 481.858 358.5 486 358.5 490.142 358.5 493.5 361.858 493.5 366 493.5 370.142 490.142 373.5 486 373.5 481.858 373.5 478.5 370.142 478.5 366Z" stroke="#385D8A" stroke-width="2.66667" stroke-linejoin="round" stroke-miterlimit="10" fill="#4F81BD" fill-rule="evenodd"/><path d="M545.5 366C545.5 361.858 548.858 358.5 553 358.5 557.142 358.5 560.5 361.858 560.5 366 560.5 370.142 557.142 373.5 553 373.5 548.858 373.5 545.5 370.142 545.5 366Z" stroke="#385D8A" stroke-width="2.66667" stroke-linejoin="round" stroke-miterlimit="10" fill="#4F81BD" fill-rule="evenodd"/><path d="M612.5 366C612.5 361.858 615.858 358.5 620 358.5 624.142 358.5 627.5 361.858 627.5 366 627.5 370.142 624.142 373.5 620 373.5 615.858 373.5 612.5 370.142 612.5 366Z" stroke="#385D8A" stroke-width="2.66667" stroke-linejoin="round" stroke-miterlimit="10" fill="#4F81BD" fill-rule="evenodd"/><path d="M679.5 366C679.5 361.858 682.858 358.5 687 358.5 691.142 358.5 694.5 361.858 694.5 366 694.5 370.142 691.142 373.5 687 373.5 682.858 373.5 679.5 370.142 679.5 366Z" stroke="#385D8A" stroke-width="2.66667" stroke-linejoin="round" stroke-miterlimit="10" fill="#4F81BD" fill-rule="evenodd"/><path d="M746.5 366C746.5 361.858 749.858 358.5 754 358.5 758.142 358.5 761.5 361.858 761.5 366 761.5 370.142 758.142 373.5 754 373.5 749.858 373.5 746.5 370.142 746.5 366Z" stroke="#385D8A" stroke-width="2.66667" stroke-linejoin="round" stroke-miterlimit="10" fill="#4F81BD" fill-rule="evenodd"/><path d="M0.682151 6.6651 0.721415 23.568-0.611915 23.5711-0.651179 6.6682ZM-3.98141 8.00927 0 0 4.01857 7.99069ZM4.05164 22.2269 0.0702362 30.2362-3.94834 22.2455Z" fill="#4A7EBB" transform="matrix(-1 -8.74228e-08 -8.74228e-08 1 239.57 142.5)"/><path d="M0 0 50.4134 0.000104987" stroke="#4A7EBB" stroke-linejoin="round" stroke-miterlimit="10" fill="none" fill-rule="evenodd" transform="matrix(-1 -8.74228e-08 -8.74228e-08 1 285.913 173.5)"/><path d="M0 0 50.4134 0.000104987" stroke="#4A7EBB" stroke-linejoin="round" stroke-miterlimit="10" fill="none" fill-rule="evenodd" transform="matrix(-1 -8.74228e-08 -8.74228e-08 1 284.913 221.5)"/><text font-family="Calibri,Calibri_MSFontService,sans-serif" font-style="italic" font-weight="400" font-size="24" transform="translate(184.627 160)">d<tspan font-size="16" x="12.3333" y="5">y</tspan><tspan font-style="normal" x="19.5" y="0">/2</tspan></text><path d="M165 149.167 165 403.017 164 403.017 164 149.167ZM160.5 150.5 164.5 142.5 168.5 150.5ZM168.5 401.684 164.5 409.684 160.5 401.684Z" fill="#4A7EBB"/><text font-family="Calibri,Calibri_MSFontService,sans-serif" font-style="italic" font-weight="400" font-size="24" transform="translate(81.3657 268)">L<tspan font-size="16" x="9.22667" y="5">y</tspan><tspan font-style="normal" x="16.3933" y="0">=</tspan>N<tspan font-family="Symbol,Symbol_MSFontService,sans-serif" font-style="normal" x="43.8933" y="0"></tspan>d<tspan font-style="normal" font-size="16" x="62.2267" y="5">y</tspan><tspan font-size="27" x="808.456" y="39">x</tspan></text><path d="M808.672 104.793 812.531 109.626 819.308 118.911 825.585 128.45 831.42 138.173 836.697 148.158 841.528 158.321 845.86 168.677 849.69 179.221 853.017 189.89 855.842 200.684 858.104 211.61 859.924 222.65 861.119 233.768 861.873 244.933 862 256.176 861.624 267.471 859.626 267.404 860 256.199 859.877 245.067 859.131 233.982 857.951 222.975 856.146 212.015 853.907 201.191 851.108 190.485 847.81 179.904 844.015 169.448 839.722 159.179 834.928 149.092 829.705 139.202 823.915 129.55 817.692 120.089 810.969 110.874 807.109 106.041ZM807.891 105.417 806.429 109.997 804.562 101.25 812.68 105.005Z" fill="#C00000"/><text font-family="Symbol,Symbol_MSFontService,sans-serif" font-style="oblique" font-weight="400" font-size="32" transform="translate(820.21 102)"></text></g></svg>