<svg width="957" height="281" xmlns="http://www.w3.org/2000/svg" xmlns:xlink="http://www.w3.org/1999/xlink" overflow="hidden"><defs><clipPath id="clip0"><rect x="-7" y="37" width="957" height="281"/></clipPath></defs><g clip-path="url(#clip0)" transform="translate(7 -37)"><path d="M1.33333-8.07289e-07 1.33343 166.732-1.33323 166.732-1.33333 8.07289e-07ZM4.0001 165.398 0.000104987 173.398-3.9999 165.398Z" fill="#C00000" transform="matrix(1 0 0 -1 475.5 254.898)"/><text fill="#C00000" font-family="Arial,Arial_MSFontService,sans-serif" font-weight="700" font-size="27" transform="translate(466.768 71)">J</text><path d="M532 168.5C532 175.404 504.913 181 471.5 181 438.087 181 411 175.404 411 168.5 411 161.596 438.087 156 471.5 156 504.913 156 532 161.596 532 168.5Z" stroke="#00B0F0" stroke-width="2" stroke-linejoin="round" stroke-miterlimit="10" fill="none" fill-rule="evenodd"/><path d="M593 168.5C593 188.106 572.629 204 547.5 204 522.371 204 502 188.106 502 168.5 502 148.894 522.371 133 547.5 133 572.629 133 593 148.894 593 168.5Z" stroke="#00B050" stroke-width="2" stroke-linejoin="round" stroke-miterlimit="10" fill="none" fill-rule="evenodd"/><path d="M684 168.5C684 175.404 656.689 181 623 181 589.311 181 562 175.404 562 168.5 562 161.596 589.311 156 623 156 656.689 156 684 161.596 684 168.5Z" stroke="#00B0F0" stroke-width="2" stroke-linejoin="round" stroke-miterlimit="10" fill="none" fill-rule="evenodd"/><path d="M744 168.5C744 188.106 723.629 204 698.5 204 673.371 204 653 188.106 653 168.5 653 148.894 673.371 133 698.5 133 723.629 133 744 148.894 744 168.5Z" stroke="#00B050" stroke-width="2" stroke-linejoin="round" stroke-miterlimit="10" fill="none" fill-rule="evenodd"/><path d="M290 168.5C290 188.106 269.629 204 244.5 204 219.371 204 199 188.106 199 168.5 199 148.894 219.371 133 244.5 133 269.629 133 290 148.894 290 168.5Z" stroke="#00B050" stroke-width="2" stroke-linejoin="round" stroke-miterlimit="10" fill="none" fill-rule="evenodd"/><path d="M381 168.5C381 175.404 353.689 181 320 181 286.311 181 259 175.404 259 168.5 259 161.596 286.311 156 320 156 353.689 156 381 161.596 381 168.5Z" stroke="#00B0F0" stroke-width="2" stroke-linejoin="round" stroke-miterlimit="10" fill="none" fill-rule="evenodd"/><path d="M441 168.5C441 188.106 420.629 204 395.5 204 370.371 204 350 188.106 350 168.5 350 148.894 370.371 133 395.5 133 420.629 133 441 148.894 441 168.5Z" stroke="#00B050" stroke-width="2" stroke-linejoin="round" stroke-miterlimit="10" fill="none" fill-rule="evenodd"/><path d="M835 166C835 173.18 807.913 179 774.5 179 741.087 179 714 173.18 714 166 714 158.82 741.087 153 774.5 153 807.913 153 835 158.82 835 166Z" stroke="#00B0F0" stroke-width="2" stroke-linejoin="round" stroke-miterlimit="10" fill="none" fill-rule="evenodd"/><path d="M229 169C229 176.18 201.913 182 168.5 182 135.087 182 108 176.18 108 169 108 161.82 135.087 156 168.5 156 201.913 156 229 161.82 229 169Z" stroke="#00B0F0" stroke-width="2" stroke-linejoin="round" stroke-miterlimit="10" fill="none" fill-rule="evenodd"/><path d="M857.5 167C857.5 165.619 858.396 164.5 859.5 164.5 860.605 164.5 861.5 165.619 861.5 167 861.5 168.381 860.605 169.5 859.5 169.5 858.396 169.5 857.5 168.381 857.5 167Z" stroke="#385D8A" stroke-width="2.66667" stroke-linejoin="round" stroke-miterlimit="10" fill="#4F81BD" fill-rule="evenodd"/><path d="M873.5 167C873.5 165.619 874.396 164.5 875.5 164.5 876.605 164.5 877.5 165.619 877.5 167 877.5 168.381 876.605 169.5 875.5 169.5 874.396 169.5 873.5 168.381 873.5 167Z" stroke="#385D8A" stroke-width="2.66667" stroke-linejoin="round" stroke-miterlimit="10" fill="#4F81BD" fill-rule="evenodd"/><path d="M889.5 167C889.5 165.619 890.396 164.5 891.5 164.5 892.605 164.5 893.5 165.619 893.5 167 893.5 168.381 892.605 169.5 891.5 169.5 890.396 169.5 889.5 168.381 889.5 167Z" stroke="#385D8A" stroke-width="2.66667" stroke-linejoin="round" stroke-miterlimit="10" fill="#4F81BD" fill-rule="evenodd"/><text font-family="Symbol,Symbol_MSFontService,sans-serif" font-weight="400" font-size="32" transform="translate(907.229 174)"></text><path d="M52.5001 170C52.5001 168.619 53.6193 167.5 55.0001 167.5 56.3808 167.5 57.5001 168.619 57.5001 170 57.5001 171.381 56.3808 172.5 55.0001 172.5 53.6193 172.5 52.5001 171.381 52.5001 170Z" stroke="#385D8A" stroke-width="2.66667" stroke-linejoin="round" stroke-miterlimit="10" fill="#4F81BD" fill-rule="evenodd"/><path d="M68.5001 170C68.5001 168.619 69.6193 167.5 71.0001 167.5 72.3808 167.5 73.5001 168.619 73.5001 170 73.5001 171.381 72.3808 172.5 71.0001 172.5 69.6193 172.5 68.5001 171.381 68.5001 170Z" stroke="#385D8A" stroke-width="2.66667" stroke-linejoin="round" stroke-miterlimit="10" fill="#4F81BD" fill-rule="evenodd"/><path d="M84.5001 170C84.5001 168.619 85.6193 167.5 87.0001 167.5 88.3808 167.5 89.5001 168.619 89.5001 170 89.5001 171.381 88.3808 172.5 87.0001 172.5 85.6193 172.5 84.5001 171.381 84.5001 170Z" stroke="#385D8A" stroke-width="2.66667" stroke-linejoin="round" stroke-miterlimit="10" fill="#4F81BD" fill-rule="evenodd"/><text font-family="Symbol,Symbol_MSFontService,sans-serif" font-weight="400" font-size="32" transform="translate(12.7922 179)"></text><path d="M92.5746 130.003 100.552 130.6 100.403 132.594 92.4254 131.997ZM106.575 131.836 110.484 132.778C110.537 132.791 110.589 132.808 110.639 132.829L114.305 134.378 113.526 136.221 109.861 134.671 110.016 134.722 106.107 133.781ZM119.852 137.024 125.22 140.404C125.274 140.437 125.324 140.476 125.37 140.519L126.581 141.649 125.217 143.111 124.005 141.981 124.155 142.096 118.787 138.716ZM131.069 145.861 133.288 148.696 135.283 151.84 135.671 152.66 133.855 153.499 133.592 152.91 131.712 149.929 129.494 147.094ZM137.912 158.33 138.009 158.616 138.731 162.245 138.998 165.93 138.958 166.629 136.963 166.489 137.002 166.07 136.769 162.63 136.116 159.259 136.019 158.973ZM138.155 172.688 138.044 173.255 136.886 176.754 135.342 180.051 135.1 180.448 133.41 179.379 133.533 179.199 134.989 176.121 136.081 172.87 136.193 172.302ZM131.613 185.444 131.038 186.179C131.005 186.22 130.97 186.258 130.932 186.294L125.764 191.114 124.4 189.651 129.568 184.831 129.462 184.946 130.038 184.211ZM120.624 194.533 118.476 195.905C118.427 195.937 118.375 195.964 118.321 195.986L113.285 198.074 112.519 196.226 117.554 194.139 117.399 194.22 119.547 192.847ZM107.443 199.955 101.922 201.285C101.869 201.297 101.816 201.306 101.762 201.31L99.4474 201.483 99.2981 199.488 101.613 199.315 101.453 199.34 106.974 198.01ZM97.1967 200.649 100.121 204.464 91.875 201 99.594 196.482Z" fill="#00B050"/><path d="M45.5746-0.997212 53.5523-0.400241 53.4031 1.59418 45.4254 0.997212ZM59.5754 0.836273 63.4842 1.77781C63.5372 1.79058 63.5892 1.8077 63.6394 1.82893L67.3047 3.3785 66.5259 5.22064 62.8606 3.67107 63.0158 3.72219 59.107 2.78066ZM72.8523 6.02393 78.2203 9.40377C78.2735 9.43728 78.3235 9.47577 78.3695 9.51867L79.5811 10.6485 78.217 12.1112 77.0055 10.9813 77.1547 11.0962 71.7867 7.71639ZM84.0687 14.861 86.2875 17.6962 88.2826 20.8404 88.6706 21.6604 86.8547 22.4985 86.5924 21.9096 84.7125 18.9288 82.4937 16.0937ZM90.9123 27.3301 91.0094 27.6159 91.7312 31.2448 91.9975 34.93 91.9583 35.6286 89.9632 35.4886 90.0024 35.07 89.7688 31.6302 89.1156 28.2591 89.0185 27.9732ZM91.1552 41.6879 91.0437 42.2552 89.8862 45.7537 88.3423 49.0508 88.1 49.4482 86.4099 48.3789 86.5327 48.1992 87.9888 45.1213 89.0813 41.8698 89.1927 41.3024ZM84.6127 54.4439 84.0375 55.1788C84.0054 55.2199 83.9702 55.2583 83.932 55.2938L78.7639 60.1135 77.3998 58.6509 82.568 53.8312 82.4625 53.9462 83.0377 53.2113ZM73.6241 63.5327 71.4759 64.9052C71.4266 64.9367 71.3746 64.9638 71.3205 64.9862L66.2854 67.074 65.5194 65.2265 70.5545 63.1388 70.3991 63.2198 72.5473 61.8473ZM60.4426 68.9548 54.9217 70.2847C54.8693 70.2973 54.8158 70.3057 54.7621 70.3097L52.4474 70.4829 52.2981 68.4885 54.6129 68.3153 54.4533 68.3403 59.9742 67.0105ZM50.1967 69.6485 53.1212 73.4641 44.875 70 52.594 65.4815Z" fill="#00B050" transform="matrix(-1 -8.74228e-08 -8.74228e-08 1 896 135)"/><text fill="#00B0F0" font-family="Arial,Arial_MSFontService,sans-serif" font-weight="700" font-size="27" transform="translate(487.638 228)">H<tspan x="130.107" y="0">H</tspan><tspan fill="#00B050" x="55.6373" y="-116">E</tspan><tspan fill="#00B050" x="204.368" y="-116">E</tspan><tspan fill="#00B050" x="-95.2357" y="-116">E</tspan><tspan fill="#00B050" x="-248.251" y="-116">E</tspan></text><path d="M36.6542 2.9774 45.0917 0.914901 53.8426-0.347371 62.7311-0.603898 66.3517-0.352179 66.258 0.977861 62.7689 0.728898 54.0324 0.972371 45.4083 2.2101 36.9708 4.2726ZM66.3048 0.312841 63.9258-3.86461 71.625 0.6875 63.3638 4.11563Z" fill="#006600" transform="matrix(-1 -8.74228e-08 -8.74228e-08 1 604.5 124.5)"/><path d="M37.7948 2.53629 46.9198 0.536292 56.4297-0.475455 66-0.479167 70.2738-0.00533116 70.1256 1.31974 66 0.854167 56.5702 0.850455 47.2052 1.83871 38.0802 3.83871ZM70.1997 0.657205 67.9942-3.61441 75.5 1.25 67.105 4.33602Z" fill="#006600" transform="matrix(-1 -8.74228e-08 -8.74228e-08 1 761.5 124.5)"/><text fill="#00B0F0" font-family="Arial,Arial_MSFontService,sans-serif" font-weight="700" font-size="27" transform="translate(770.042 228)">H</text><path d="M97.2933 41.7903 86.7308 42.4778 76.0117 42.6666 65.2384 42.4791 59.9721 42.168 60.0509 40.837 65.2616 41.1459 75.9883 41.3334 86.6442 41.1472 97.2067 40.4597ZM60.0115 41.5025 62.4373 45.6531 54.6875 41.1875 62.9098 37.667Z" fill="#0070C0" transform="matrix(-1 -8.74228e-08 -8.74228e-08 1 549.5 147.5)"/><path d="M100.048 41.5399 88.8608 42.3524 77.4558 42.6664 65.9891 42.4791 59.9759 42.1474 60.0495 40.8161 66.0109 41.1459 77.4192 41.3336 88.7642 41.0226 99.9517 40.2101ZM60.0127 41.4817 62.4547 45.6227 54.6875 41.1875 62.896 37.6349Z" fill="#0070C0" transform="matrix(-1 -8.74228e-08 -8.74228e-08 1 703.5 149.5)"/><path d="M94.5854 42.0413 74.5854 42.7288 59.9864 42.0881 60.045 40.7561 74.5396 41.3962 94.5396 40.7087ZM60.0157 41.4221 62.5038 45.5355 54.6875 41.1875 62.8557 37.5432Z" fill="#0070C0" transform="matrix(-1 -8.74228e-08 -8.74228e-08 1 852.5 146.5)"/><path d="M371.873 129.611 380.936 126.923 390.517 125.342 400.341 124.834 404.852 125.147 404.758 126.477 400.409 126.166 390.733 126.658 381.315 128.202 372.252 130.889ZM404.805 125.812 402.426 121.635 410.125 126.188 401.864 129.615Z" fill="#006600"/><path d="M219.373 129.673 228.436 126.986 238.013 125.343 247.841 124.834 252.352 125.147 252.258 126.477 247.909 126.166 238.237 126.657 228.815 128.264 219.752 130.952ZM252.305 125.812 249.926 121.635 257.625 126.188 249.364 129.615Z" fill="#006600"/><path d="M100.048 41.5399 88.8608 42.3524 77.4558 42.6664 65.9891 42.4791 59.9759 42.1474 60.0495 40.8161 66.0109 41.1459 77.4192 41.3336 88.7642 41.0226 99.9517 40.2101ZM60.0127 41.4817 62.4547 45.6227 54.6875 41.1875 62.896 37.6349Z" fill="#0070C0" transform="matrix(-1 -8.74228e-08 -8.74228e-08 1 398.5 148.5)"/><text fill="#00B0F0" font-family="Arial,Arial_MSFontService,sans-serif" font-weight="700" font-size="27" transform="translate(160.856 228)">H<tspan x="152.296" y="0">H</tspan></text><path d="M100.048 41.5399 88.8608 42.3524 77.4558 42.6664 65.9891 42.4791 59.9759 42.1474 60.0495 40.8161 66.0109 41.1459 77.4192 41.3336 88.7642 41.0226 99.9517 40.2101ZM60.0127 41.4817 62.4547 45.6227 54.6875 41.1875 62.896 37.6349Z" fill="#0070C0" transform="matrix(-1 -8.74228e-08 -8.74228e-08 1 252.5 148.5)"/><text fill="#C00000" font-family="Calibri,Calibri_MSFontService,sans-serif" font-weight="400" font-size="24" transform="translate(423.493 296)">AC <tspan x="31.9933" y="0">current</tspan></text><path d="M544.5 289 802.401 289 802.401 290 544.5 290ZM801.067 285.5 809.067 289.5 801.067 293.5Z" fill="#4A7EBB"/><path d="M1.98413e-07-0.5 257.901-0.499898 257.901 0.500102-1.98413e-07 0.5ZM256.567-3.9999 264.567 0.000104987 256.567 4.0001Z" fill="#4A7EBB" transform="matrix(-1 -8.74228e-08 -8.74228e-08 1 408.067 289.5)"/><text fill="#376092" font-family="Calibri,Calibri_MSFontService,sans-serif" font-weight="400" font-size="24" transform="translate(819.672 296)">waves<tspan x="-742.613" y="0">waves</tspan></text></g></svg>