<svg width="737" height="192" xmlns="http://www.w3.org/2000/svg" xmlns:xlink="http://www.w3.org/1999/xlink" overflow="hidden"><defs><clipPath id="clip0"><rect x="148" y="440" width="737" height="192"/></clipPath></defs><g clip-path="url(#clip0)" transform="translate(-148 -440)"><path d="M489.012 626.128C468.717 612.12 457.409 564.442 463.754 519.636 468.589 485.491 482.591 461.684 498.779 460.085" stroke="#000000" stroke-width="1.66667" stroke-linejoin="round" stroke-miterlimit="10" stroke-dasharray="1.66667 1.66667" fill="none" fill-rule="evenodd"/><path d="M473.536 587.761C426.883 585.393 393.302 566.344 398.529 545.213 403.756 524.082 445.812 508.872 492.464 511.239 539.117 513.607 572.698 532.656 567.471 553.787 562.284 574.757 520.797 589.928 474.447 587.805" stroke="#000000" stroke-width="1.66667" stroke-linejoin="round" stroke-miterlimit="10" stroke-dasharray="1.66667 1.66667" fill="none" fill-rule="evenodd"/><path d="M398 544C398 497.056 436.056 459 483 459 529.944 459 568 497.056 568 544 568 590.944 529.944 629 483 629 436.056 629 398 590.944 398 544Z" stroke="#0070C0" stroke-width="2.33333" stroke-linejoin="round" stroke-miterlimit="10" fill="none" fill-rule="evenodd"/><path d="M475.5 548.5C475.5 539.664 520.272 532.5 575.5 532.5 630.729 532.5 675.5 539.664 675.5 548.5 675.5 557.337 630.729 564.5 575.5 564.5 520.272 564.5 475.5 557.337 475.5 548.5Z" stroke="#C00000" stroke-width="2.66667" stroke-linejoin="round" stroke-miterlimit="10" fill="#D9D9D9" fill-rule="evenodd"/><path d="M475.224 544.841C472.716 541.417 484.637 528.418 501.85 515.806 519.064 503.194 535.052 495.745 537.56 499.169 540.068 502.592 528.148 515.592 510.934 528.204 493.721 540.816 477.733 548.265 475.224 544.841Z" stroke="#C00000" stroke-width="2.66667" stroke-linejoin="round" stroke-miterlimit="10" fill="#D9D9D9" fill-rule="evenodd"/><path d="M0 7.68478C-9.83835e-15 3.44059 17.299 0 38.6383 0 59.9777-1.95675e-15 77.2766 3.44059 77.2766 7.68478 77.2766 11.929 59.9777 15.3696 38.6383 15.3696 17.299 15.3696-1.47575e-14 11.929 0 7.68478Z" stroke="#C00000" stroke-width="2.66667" stroke-linejoin="round" stroke-miterlimit="10" fill="#D9D9D9" fill-rule="evenodd" transform="matrix(0.852382 0.52292 0.52292 -0.852382 469.439 558.133)"/><path d="M446.712 518.11C448.398 516.407 456.197 521.39 464.132 529.24 472.068 537.09 477.134 544.835 475.449 546.538 473.764 548.242 465.965 543.259 458.029 535.409 450.094 527.559 445.027 519.814 446.712 518.11Z" stroke="#C00000" stroke-width="2.66667" stroke-linejoin="round" stroke-miterlimit="10" fill="#D9D9D9" fill-rule="evenodd"/><path d="M446.125 579.015C444.029 576.941 449.026 568.492 457.286 560.142 465.546 551.793 473.941 546.705 476.037 548.778 478.133 550.851 473.136 559.301 464.876 567.65 456.616 576 448.221 581.088 446.125 579.015Z" stroke="#C00000" stroke-width="2.66667" stroke-linejoin="round" stroke-miterlimit="10" fill="#D9D9D9" fill-rule="evenodd"/><path d="M497.4 450.129 504.525 450.754 511.605 451.952 518.551 453.654 525.371 455.861 532.004 458.575 538.447 461.793 543.891 465.067 542.86 466.781 537.553 463.582 531.246 460.425 524.754 457.764 518.074 455.596 511.27 453.923 504.35 452.746 497.225 452.121ZM543.376 465.924 542.814 457.405 549.938 470.5 535.188 468.341Z"/><text fill="#0070C0" font-family="Arial,Arial_MSFontService,sans-serif" font-weight="400" font-size="24" transform="translate(163.161 573)">Isotropic<tspan x="97.3333" y="0">pattern …</tspan><tspan fill="#C00000" x="425.18" y="-86">Directive pattern…</tspan><tspan fill="#000000" font-style="italic" x="393.328" y="-102">θ</tspan></text><path d="M514.453 599.713 510.474 600.362 498.159 601.558 485.535 601.999 472.913 601.687 472.962 599.688 485.465 600.001 497.966 599.567 510.151 598.388 514.131 597.739ZM514.292 598.726 507.955 593.005 522.188 597.438 510.102 606.164Z"/><text font-family="Arial,Arial_MSFontService,sans-serif" font-style="italic" font-weight="400" font-size="24" transform="translate(451.937 611)">φ<tspan fill="#C00000" x="340.796" y="-124">S</tspan><tspan fill="#C00000" font-style="normal" x="356.796" y="-124">(</tspan><tspan fill="#C00000" x="364.796" y="-124">θ</tspan><tspan fill="#C00000" font-style="normal" x="377.796" y="-124">,</tspan><tspan fill="#C00000" font-family="Symbol,Symbol_MSFontService,sans-serif" font-style="oblique" x="384.463" y="-124"></tspan><tspan fill="#C00000" font-style="normal" x="398.963" y="-124">)</tspan></text><path d="M0.37425-0.744568 37.601 17.9671 36.8525 19.4563-0.37425 0.744568ZM32.8731 10.4947 38.7044 19.4544 28.035 20.1202C27.5757 20.1488 27.18 19.7997 27.1514 19.3404 27.1227 18.881 27.4719 18.4854 27.9312 18.4567L37.1749 17.88 36.5283 19.1663 31.4763 11.4039C31.2252 11.0181 31.3344 10.5019 31.7201 10.2509 32.1059 9.99982 32.6221 10.109 32.8731 10.4947Z" fill="#0070C0" transform="matrix(1 0 0 -1 359 560.453)"/><path d="M0.784545-0.280952 13.6582 35.668 12.0891 36.2299-0.784545 0.280952ZM15.3892 26.9966 13.4312 37.506 5.24693 30.6287C4.89458 30.3326 4.84897 29.8069 5.14505 29.4546 5.44114 29.1022 5.9668 29.0566 6.31915 29.3527L13.4097 35.311 12.0544 35.7963 13.7507 26.6914C13.835 26.2389 14.2701 25.9405 14.7226 26.0248 15.175 26.1091 15.4735 26.5442 15.3892 26.9966Z" fill="#C00000" transform="matrix(-1 -8.74228e-08 -8.74228e-08 1 658.43 493)"/></g></svg>