<svg width="403" height="298" xmlns="http://www.w3.org/2000/svg" xmlns:xlink="http://www.w3.org/1999/xlink" overflow="hidden"><defs><clipPath id="clip0"><rect x="102" y="-10" width="403" height="298"/></clipPath></defs><g clip-path="url(#clip0)" transform="translate(-102 10)"><path d="M155 238.167 403.452 238.167 403.452 239.833 155 239.833ZM402.118 235 410.118 239 402.118 243Z" fill="#002060"/><path d="M0.833333-3.40376e-07 0.833436 250.37-0.833231 250.37-0.833333 3.40376e-07ZM4.0001 249.036 0.000104987 257.036-3.9999 249.036Z" fill="#002060" transform="matrix(1 0 0 -1 181 269.036)"/><path d="M0.759257-0.885799 179.902 152.665 178.384 154.437-0.759257 0.885799ZM179.143 153.551 179.433 145.019 185.217 158.758 170.755 155.142Z" fill="#00B0F0" transform="matrix(1 0 0 -1 181 238.758)"/><text font-family="Ericsson Hilda,Ericsson Hilda_MSFontService,sans-serif" font-style="oblique" font-weight="400" font-size="24" transform="translate(203.569 174)">θ</text><path d="M183.524 179.001 190.024 179.313 196.51 180.255 202.866 181.764 209.035 183.839 214.954 186.481 220.618 189.625 225.973 193.339 226.881 194.107 226.234 194.869 225.402 194.161 220.132 190.5 214.546 187.394 208.715 184.786 202.634 182.736 196.365 181.245 189.976 180.312 183.476 179.999ZM226.558 194.488 227.111 189.712 230.625 197.938 221.937 195.814Z" fill="#4A7EBB"/><path d="M102 79 502.674 79.0001" stroke="#4A7EBB" stroke-width="2" stroke-linejoin="round" stroke-miterlimit="10" stroke-dasharray="8 6" fill="none" fill-rule="evenodd"/><text font-family="Ericsson Hilda,Ericsson Hilda_MSFontService,sans-serif" font-style="oblique" font-weight="400" font-size="24" transform="translate(344.406 121)">β<tspan font-family="Cambria Math,Cambria Math_MSFontService,sans-serif" font-style="normal" x="14.0893" y="0">𝐫</tspan></text><path d="M5.75391-16.8984 9.73828-13.207 9.10547-12.5391 4.96875-15.3867 4.83984-15.3867 0.632813-12.5391 0-13.207 4.18359-16.8984Z" transform="translate(359.956 121)"/><text font-family="Ericsson Hilda,Ericsson Hilda_MSFontService,sans-serif" font-style="oblique" font-weight="400" font-size="24" transform="translate(139.278 108)">β<tspan font-size="16" x="13.1667" y="5">z</tspan></text><path d="M1.16667-7.77282e-07 1.16677 149.581-1.16657 149.581-1.16667 7.77282e-07ZM9.96569e-05 149.581 6.66676 144.247 0.000104987 157.581-6.66657 144.247Z" fill="#00B0F0" transform="matrix(1 0 0 -1 181 237.581)"/><text font-family="Arial,Arial_MSFontService,sans-serif" font-style="italic" font-weight="400" font-size="24" transform="translate(397.731 267)">y<tspan x="-245.437" y="-246">z</tspan></text></g></svg>