<svg width="463" height="327" xmlns="http://www.w3.org/2000/svg" xmlns:xlink="http://www.w3.org/1999/xlink" overflow="hidden"><defs><clipPath id="clip0"><rect x="249" y="377" width="463" height="327"/></clipPath></defs><g clip-path="url(#clip0)" transform="translate(-249 -377)"><path d="M250 635.167 696.927 635.167 696.927 636.833 250 636.833ZM695.594 632 703.594 636 695.594 640Z" fill="#002060"/><path d="M312.5 480.5 371.544 480.5" stroke="#4A7EBB" stroke-width="2.66667" stroke-linejoin="round" stroke-miterlimit="10" fill="none" fill-rule="evenodd"/><text font-family="Arial,Arial_MSFontService,sans-serif" font-style="italic" font-weight="400" font-size="24" transform="translate(687.051 664)">f</text><path d="M0 0 0.000104987 156.355" stroke="#4A7EBB" stroke-width="2.66667" stroke-linejoin="round" stroke-miterlimit="10" fill="none" fill-rule="evenodd" transform="matrix(1 0 0 -1 312.5 636.855)"/><path d="M0 0 0.000104987 156.355" stroke="#4A7EBB" stroke-width="2.66667" stroke-linejoin="round" stroke-miterlimit="10" fill="none" fill-rule="evenodd" transform="matrix(1 0 0 -1 371.5 636.855)"/><path d="M1-5.24741e-07 1.0001 198.094-0.999896 198.094-1 5.24741e-07ZM5.53055 190.598 0.000104701 200.078-5.53035 190.598C-5.80863 190.121-5.64749 189.508-5.17044 189.23-4.69339 188.952-4.08107 189.113-3.80279 189.59L0.863883 197.59-0.863675 197.59 3.80299 189.59C4.08127 189.113 4.69359 188.952 5.17064 189.23 5.64769 189.508 5.80883 190.121 5.53055 190.598Z" fill="#4A7EBB" transform="matrix(1 0 0 -1 341 636.074)"/><rect x="312.5" y="480.5" width="59" height="156" stroke="#385D8A" stroke-width="2.66667" stroke-linejoin="round" stroke-miterlimit="10" fill="#4F81BD" fill-opacity="0.439216"/><path d="M409.5 480.5 468.544 480.5" stroke="#4A7EBB" stroke-width="2.66667" stroke-linejoin="round" stroke-miterlimit="10" fill="none" fill-rule="evenodd"/><path d="M0 0 0.000104987 156.355" stroke="#4A7EBB" stroke-width="2.66667" stroke-linejoin="round" stroke-miterlimit="10" fill="none" fill-rule="evenodd" transform="matrix(1 0 0 -1 409.5 636.855)"/><path d="M0 0 0.000104987 156.355" stroke="#4A7EBB" stroke-width="2.66667" stroke-linejoin="round" stroke-miterlimit="10" fill="none" fill-rule="evenodd" transform="matrix(1 0 0 -1 468.5 636.855)"/><path d="M1-5.24741e-07 1.0001 198.094-0.999896 198.094-1 5.24741e-07ZM5.53055 190.598 0.000104701 200.078-5.53035 190.598C-5.80863 190.121-5.64749 189.508-5.17044 189.23-4.69339 188.952-4.08107 189.113-3.80279 189.59L0.863883 197.59-0.863675 197.59 3.80299 189.59C4.08127 189.113 4.69359 188.952 5.17064 189.23 5.64769 189.508 5.80883 190.121 5.53055 190.598Z" fill="#4A7EBB" transform="matrix(1 0 0 -1 438 636.074)"/><rect x="409.5" y="480.5" width="59" height="156" stroke="#385D8A" stroke-width="2.66667" stroke-linejoin="round" stroke-miterlimit="10" fill="#4F81BD" fill-opacity="0.439216"/><path d="M507.5 480.5 566.544 480.5" stroke="#4A7EBB" stroke-width="2.66667" stroke-linejoin="round" stroke-miterlimit="10" fill="none" fill-rule="evenodd"/><path d="M0 0 0.000104987 156.355" stroke="#4A7EBB" stroke-width="2.66667" stroke-linejoin="round" stroke-miterlimit="10" fill="none" fill-rule="evenodd" transform="matrix(1 0 0 -1 507.5 636.855)"/><path d="M0 0 0.000104987 156.355" stroke="#4A7EBB" stroke-width="2.66667" stroke-linejoin="round" stroke-miterlimit="10" fill="none" fill-rule="evenodd" transform="matrix(1 0 0 -1 566.5 636.855)"/><path d="M1-5.24741e-07 1.0001 198.094-0.999896 198.094-1 5.24741e-07ZM5.53055 190.598 0.000104701 200.078-5.53035 190.598C-5.80863 190.121-5.64749 189.508-5.17044 189.23-4.69339 188.952-4.08107 189.113-3.80279 189.59L0.863883 197.59-0.863675 197.59 3.80299 189.59C4.08127 189.113 4.69359 188.952 5.17064 189.23 5.64769 189.508 5.80883 190.121 5.53055 190.598Z" fill="#4A7EBB" transform="matrix(1 0 0 -1 537 636.074)"/><rect x="507.5" y="480.5" width="59" height="156" stroke="#385D8A" stroke-width="2.66667" stroke-linejoin="round" stroke-miterlimit="10" fill="#4F81BD" fill-opacity="0.439216"/><path d="M605.5 480.5 664.544 480.5" stroke="#4A7EBB" stroke-width="2.66667" stroke-linejoin="round" stroke-miterlimit="10" fill="none" fill-rule="evenodd"/><path d="M0 0 0.000104987 156.355" stroke="#4A7EBB" stroke-width="2.66667" stroke-linejoin="round" stroke-miterlimit="10" fill="none" fill-rule="evenodd" transform="matrix(1 0 0 -1 605.5 636.855)"/><path d="M0 0 0.000104987 156.355" stroke="#4A7EBB" stroke-width="2.66667" stroke-linejoin="round" stroke-miterlimit="10" fill="none" fill-rule="evenodd" transform="matrix(1 0 0 -1 664.5 636.855)"/><path d="M1-5.24741e-07 1.0001 198.094-0.999896 198.094-1 5.24741e-07ZM5.53055 190.598 0.000104701 200.078-5.53035 190.598C-5.80863 190.121-5.64749 189.508-5.17044 189.23-4.69339 188.952-4.08107 189.113-3.80279 189.59L0.863883 197.59-0.863675 197.59 3.80299 189.59C4.08127 189.113 4.69359 188.952 5.17064 189.23 5.64769 189.508 5.80883 190.121 5.53055 190.598Z" fill="#4A7EBB" transform="matrix(1 0 0 -1 635 636.074)"/><rect x="605.5" y="480.5" width="59" height="156" stroke="#385D8A" stroke-width="2.66667" stroke-linejoin="round" stroke-miterlimit="10" fill="#4F81BD" fill-opacity="0.439216"/><path d="M372.98 647 406.819 647 406.819 649 372.98 649ZM380.476 653.53 370.995 648 380.476 642.47C380.953 642.191 381.566 642.352 381.844 642.829 382.122 643.307 381.961 643.919 381.484 644.197L373.484 648.864 373.484 647.136 381.484 651.803C381.961 652.081 382.122 652.694 381.844 653.171 381.565 653.648 380.953 653.809 380.476 653.53ZM399.323 642.47 408.804 648 399.323 653.531C398.846 653.809 398.234 653.648 397.956 653.171 397.677 652.694 397.839 652.081 398.316 651.803L406.316 647.136 406.316 648.864 398.316 644.197C397.839 643.919 397.677 643.307 397.956 642.83 398.234 642.352 398.846 642.191 399.323 642.47Z" fill="#984807"/><text font-family="Calibri,Calibri_MSFontService,sans-serif" font-weight="400" font-size="24" transform="translate(383.597 682)">Guard interval</text><path d="M313.48 421 663.953 421 663.953 422 313.48 422ZM321.238 426.599 312.498 421.5 321.238 416.402C321.477 416.262 321.783 416.343 321.922 416.581 322.061 416.82 321.981 417.126 321.742 417.265L313.742 421.932 313.742 421.068 321.742 425.735C321.981 425.874 322.061 426.18 321.922 426.419 321.783 426.657 321.477 426.738 321.238 426.599ZM656.206 416.402 664.947 421.5 656.206 426.599C655.968 426.738 655.662 426.657 655.522 426.419 655.383 426.18 655.464 425.874 655.702 425.735L663.702 421.068 663.702 421.932 655.702 417.265C655.464 417.126 655.383 416.82 655.522 416.582 655.662 416.343 655.968 416.262 656.206 416.402Z" fill="#4A7EBB"/><text font-family="Calibri,Calibri_MSFontService,sans-serif" font-weight="400" font-size="24" transform="translate(464.866 407)">IBW</text></g></svg>