<svg width="1026" height="263" xmlns="http://www.w3.org/2000/svg" xmlns:xlink="http://www.w3.org/1999/xlink" overflow="hidden"><defs><clipPath id="clip0"><rect x="-15" y="344" width="1026" height="263"/></clipPath></defs><g clip-path="url(#clip0)" transform="translate(15 -344)"><path d="M835 475.833 904.935 475.833 904.935 478.167 835 478.167ZM897.523 471.326 907.25 477 897.523 482.674C896.966 482.999 896.252 482.811 895.927 482.255 895.603 481.698 895.791 480.984 896.347 480.659L904.347 475.992 904.347 478.008 896.347 473.341C895.791 473.017 895.603 472.302 895.927 471.746 896.252 471.189 896.966 471.001 897.523 471.326Z" fill="#4A7EBB"/><rect x="74.5001" y="347.5" width="152" height="257" stroke="#385D8A" stroke-width="2.66667" stroke-linejoin="round" stroke-miterlimit="10" fill="#4F81BD" fill-opacity="0.439216"/><text font-family="Calibri,Calibri_MSFontService,sans-serif" font-weight="400" font-size="24" transform="translate(131.113 481)">ADC<tspan x="713.664" y="41">Reconstructed</tspan><tspan x="713.664" y="70">bitstream</tspan></text><rect x="276.5" y="346.5" width="152" height="257" stroke="#385D8A" stroke-width="2.66667" stroke-linejoin="round" stroke-miterlimit="10" fill="#4F81BD" fill-opacity="0.439216"/><text font-family="Calibri,Calibri_MSFontService,sans-serif" font-weight="400" font-size="24" transform="translate(333.325 484)">DFT</text><rect x="683.5" y="348.5" width="152" height="257" stroke="#385D8A" stroke-width="2.66667" stroke-linejoin="round" stroke-miterlimit="10" fill="#4F81BD" fill-opacity="0.439216"/><text font-family="Calibri,Calibri_MSFontService,sans-serif" font-weight="400" font-size="24" transform="translate(708.565 469)">PARALLEL<tspan x="93.4" y="0">-</tspan><tspan x="0" y="29">TO</tspan><tspan x="26.82" y="29">-</tspan><tspan x="34.1534" y="29">SERIAL</tspan></text><path d="M0 0 56.7109 0.000104987" stroke="#4A7EBB" stroke-width="3.33333" stroke-linejoin="round" stroke-miterlimit="10" fill="none" fill-rule="evenodd" transform="matrix(-1 -8.74228e-08 -8.74228e-08 1 74.2109 475.5)"/><path d="M18.4357 476.506-12.5001 448.5" stroke="#4A7EBB" stroke-width="3.33333" stroke-linejoin="round" stroke-miterlimit="10" fill="none" fill-rule="evenodd"/><path d="M0 0 30.9357 28.0058" stroke="#4A7EBB" stroke-width="3.33333" stroke-linejoin="round" stroke-miterlimit="10" fill="none" fill-rule="evenodd" transform="matrix(-1 -8.74228e-08 -8.74228e-08 1 18.4357 475.5)"/><rect x="480.5" y="347.5" width="152" height="257" stroke="#385D8A" stroke-width="2.66667" stroke-linejoin="round" stroke-miterlimit="10" fill="#4F81BD" fill-opacity="0.439216"/><text font-family="Calibri,Calibri_MSFontService,sans-serif" font-weight="400" font-size="21" transform="translate(533.527 473)">QAM <tspan x="-46.6134" y="26">DEMODULATOR</tspan></text><path d="M632 361.833 676.252 361.833 676.252 364.167 632 364.167ZM676.252 363 670.919 356.333 684.252 363 670.919 369.667Z" fill="#4A7EBB"/><path d="M632 407.833 676.252 407.833 676.252 410.167 632 410.167ZM676.252 409 670.919 402.333 684.252 409 670.919 415.667Z" fill="#4A7EBB"/><path d="M632 588.833 677.072 588.833 677.072 591.167 632 591.167ZM677.072 590 671.739 583.333 685.072 590 671.739 596.667Z" fill="#4A7EBB"/><path d="M653.5 468C653.5 466.619 654.619 465.5 656 465.5 657.381 465.5 658.5 466.619 658.5 468 658.5 469.381 657.381 470.5 656 470.5 654.619 470.5 653.5 469.381 653.5 468Z" stroke="#385D8A" stroke-width="2.66667" stroke-linejoin="round" stroke-miterlimit="10" fill="#4F81BD" fill-rule="evenodd"/><path d="M653.5 483C653.5 481.619 654.619 480.5 656 480.5 657.381 480.5 658.5 481.619 658.5 483 658.5 484.381 657.381 485.5 656 485.5 654.619 485.5 653.5 484.381 653.5 483Z" stroke="#385D8A" stroke-width="2.66667" stroke-linejoin="round" stroke-miterlimit="10" fill="#4F81BD" fill-rule="evenodd"/><path d="M653.5 498C653.5 496.619 654.619 495.5 656 495.5 657.381 495.5 658.5 496.619 658.5 498 658.5 499.381 657.381 500.5 656 500.5 654.619 500.5 653.5 499.381 653.5 498Z" stroke="#385D8A" stroke-width="2.66667" stroke-linejoin="round" stroke-miterlimit="10" fill="#4F81BD" fill-rule="evenodd"/><path d="M632 543.833 676.252 543.833 676.252 546.167 632 546.167ZM676.252 545 670.919 538.333 684.252 545 670.919 551.667Z" fill="#4A7EBB"/><path d="M428 361.833 472.252 361.833 472.252 364.167 428 364.167ZM472.252 363 466.919 356.333 480.252 363 466.919 369.667Z" fill="#4A7EBB"/><path d="M428 407.833 472.252 407.833 472.252 410.167 428 410.167ZM472.252 409 466.919 402.333 480.252 409 466.919 415.667Z" fill="#4A7EBB"/><path d="M428 588.833 473.072 588.833 473.072 591.167 428 591.167ZM473.072 590 467.739 583.333 481.072 590 467.739 596.667Z" fill="#4A7EBB"/><path d="M449.5 468C449.5 466.619 450.619 465.5 452 465.5 453.381 465.5 454.5 466.619 454.5 468 454.5 469.381 453.381 470.5 452 470.5 450.619 470.5 449.5 469.381 449.5 468Z" stroke="#385D8A" stroke-width="2.66667" stroke-linejoin="round" stroke-miterlimit="10" fill="#4F81BD" fill-rule="evenodd"/><path d="M449.5 483C449.5 481.619 450.619 480.5 452 480.5 453.381 480.5 454.5 481.619 454.5 483 454.5 484.381 453.381 485.5 452 485.5 450.619 485.5 449.5 484.381 449.5 483Z" stroke="#385D8A" stroke-width="2.66667" stroke-linejoin="round" stroke-miterlimit="10" fill="#4F81BD" fill-rule="evenodd"/><path d="M449.5 498C449.5 496.619 450.619 495.5 452 495.5 453.381 495.5 454.5 496.619 454.5 498 454.5 499.381 453.381 500.5 452 500.5 450.619 500.5 449.5 499.381 449.5 498Z" stroke="#385D8A" stroke-width="2.66667" stroke-linejoin="round" stroke-miterlimit="10" fill="#4F81BD" fill-rule="evenodd"/><path d="M428 543.833 472.252 543.833 472.252 546.167 428 546.167ZM472.252 545 466.919 538.333 480.252 545 466.919 551.667Z" fill="#4A7EBB"/><path d="M226 471.833 273.79 471.833 273.79 474.167 226 474.167ZM266.378 467.326 276.105 473 266.378 478.674C265.821 478.999 265.107 478.811 264.782 478.255 264.458 477.698 264.646 476.984 265.202 476.659L273.202 471.992 273.202 474.008 265.202 469.341C264.646 469.017 264.458 468.302 264.782 467.746 265.107 467.189 265.821 467.001 266.378 467.326Z" fill="#4A7EBB"/></g></svg>