<svg width="896" height="483" xmlns="http://www.w3.org/2000/svg" xmlns:xlink="http://www.w3.org/1999/xlink" overflow="hidden"><defs><clipPath id="clip0"><rect x="-1" y="54" width="896" height="483"/></clipPath></defs><g clip-path="url(#clip0)" transform="translate(1 -54)"><path d="M334.001 336.065C334.206 217.602 359.22 122.212 389.872 123.005 420.402 123.794 445.035 219.741 445.001 337.739" stroke="#953735" stroke-width="4" stroke-linejoin="round" stroke-miterlimit="10" stroke-dasharray="32 12" fill="none" fill-rule="evenodd"/><path d="M445.021 334.268C444.422 294.81 456.464 261.583 471.916 260.054 487.368 258.525 500.38 289.273 500.979 328.732 501.006 330.484 501.007 332.238 500.983 333.991" stroke="#953735" stroke-width="4" stroke-linejoin="round" stroke-miterlimit="10" stroke-dasharray="32 12" fill="none" fill-rule="evenodd"/><path d="M501.036 333.717C500.257 304.485 511.922 279.57 527.09 278.07 542.258 276.569 555.185 299.05 555.964 328.283 556.01 330.002 556.012 331.725 555.971 333.445" stroke="#953735" stroke-width="4" stroke-linejoin="round" stroke-miterlimit="10" stroke-dasharray="32 12" fill="none" fill-rule="evenodd"/><path d="M275.021 334.268C274.422 294.81 286.464 261.583 301.916 260.054 317.368 258.525 330.38 289.273 330.979 328.732 331.006 330.484 331.007 332.238 330.983 333.991" stroke="#953735" stroke-width="4" stroke-linejoin="round" stroke-miterlimit="10" stroke-dasharray="32 12" fill="none" fill-rule="evenodd"/><path d="M220.036 333.717C219.257 304.485 230.922 279.57 246.09 278.07 261.258 276.569 274.185 299.05 274.964 328.283 275.01 330.002 275.012 331.725 274.971 333.445" stroke="#953735" stroke-width="4" stroke-linejoin="round" stroke-miterlimit="10" stroke-dasharray="32 12" fill="none" fill-rule="evenodd"/><path d="M164.059 334.265C163.053 310.842 174.747 290.617 190.179 289.09 205.61 287.563 218.935 305.313 219.941 328.736 220.016 330.484 220.02 332.239 219.952 333.988" stroke="#953735" stroke-width="4" stroke-linejoin="round" stroke-miterlimit="10" stroke-dasharray="32 12" fill="none" fill-rule="evenodd"/><path d="M556.059 334.265C555.053 310.842 566.747 290.617 582.179 289.09 597.61 287.563 610.935 305.313 611.941 328.736 612.016 330.484 612.02 332.239 611.952 333.988" stroke="#953735" stroke-width="4" stroke-linejoin="round" stroke-miterlimit="10" stroke-dasharray="32 12" fill="none" fill-rule="evenodd"/><path d="M108.069 334.264C106.987 312.502 118.615 293.623 134.041 292.097 149.467 290.571 162.849 306.975 163.931 328.736 164.018 330.484 164.023 332.239 163.944 333.987" stroke="#953735" stroke-width="4" stroke-linejoin="round" stroke-miterlimit="10" stroke-dasharray="32 12" fill="none" fill-rule="evenodd"/><path d="M53.0804 334.213C51.9198 314.664 63.255 297.602 78.3984 296.104 93.5419 294.606 106.759 309.238 107.92 328.787 108.021 330.503 108.027 332.226 107.935 333.942" stroke="#953735" stroke-width="4" stroke-linejoin="round" stroke-miterlimit="10" stroke-dasharray="32 12" fill="none" fill-rule="evenodd"/><path d="M0.068598 42.2636C-1.01333 20.5018 10.6149 1.62311 26.041 0.096827 41.4671-1.42946 54.8494 14.9747 55.9314 36.7364 56.0183 38.4844 56.0226 40.2386 55.9444 41.9874" stroke="#953735" stroke-width="4" stroke-linejoin="round" stroke-miterlimit="10" stroke-dasharray="32 12" fill="none" fill-rule="evenodd" transform="matrix(-1 -8.74228e-08 -8.74228e-08 1 668 292)"/><path d="M0.0804418 38.213C-1.08023 18.6642 10.255 1.60216 25.3984 0.103838 40.5419-1.39448 53.7589 13.2383 54.9196 32.7871 55.0215 34.5027 55.0266 36.2255 54.9349 37.9421" stroke="#953735" stroke-width="4" stroke-linejoin="round" stroke-miterlimit="10" stroke-dasharray="32 12" fill="none" fill-rule="evenodd" transform="matrix(-1 -8.74228e-08 -8.74228e-08 1 723 296)"/><path d="M426.001 336.065C426.206 217.602 451.22 122.212 481.872 123.005 512.402 123.794 537.035 219.741 537.001 337.739" stroke="#0070C0" stroke-width="4" stroke-linejoin="round" stroke-miterlimit="10" fill="none" fill-rule="evenodd"/><path d="M537.021 334.268C536.422 294.81 548.464 261.583 563.916 260.054 579.368 258.525 592.38 289.273 592.979 328.732 593.006 330.484 593.007 332.238 592.983 333.991" stroke="#0070C0" stroke-width="4" stroke-linejoin="round" stroke-miterlimit="10" fill="none" fill-rule="evenodd"/><path d="M593.038 333.767C592.231 304.535 604.096 279.6 619.538 278.072 634.981 276.544 648.155 299.002 648.962 328.233 649.01 329.984 649.013 331.738 648.969 333.49" stroke="#0070C0" stroke-width="4" stroke-linejoin="round" stroke-miterlimit="10" fill="none" fill-rule="evenodd"/><path d="M368.02 334.219C367.442 294.759 379.277 261.553 394.454 260.052 409.631 258.55 422.403 289.321 422.98 328.781 423.005 330.502 423.007 332.225 422.984 333.946" stroke="#0070C0" stroke-width="4" stroke-linejoin="round" stroke-miterlimit="10" fill="none" fill-rule="evenodd"/><path d="M312.038 333.767C311.231 304.535 323.095 279.6 338.538 278.072 353.981 276.544 367.155 299.002 367.962 328.233 368.01 329.984 368.013 331.738 367.969 333.49" stroke="#0070C0" stroke-width="4" stroke-linejoin="round" stroke-miterlimit="10" fill="none" fill-rule="evenodd"/><path d="M256.059 334.265C255.053 310.842 266.747 290.617 282.179 289.09 297.61 287.563 310.935 305.313 311.941 328.736 312.016 330.484 312.02 332.239 311.952 333.988" stroke="#0070C0" stroke-width="4" stroke-linejoin="round" stroke-miterlimit="10" fill="none" fill-rule="evenodd"/><path d="M649.056 334.215C648.086 310.791 659.586 290.586 674.743 289.087 689.9 287.587 702.973 305.361 703.944 328.785 704.015 330.502 704.018 332.225 703.954 333.944" stroke="#0070C0" stroke-width="4" stroke-linejoin="round" stroke-miterlimit="10" fill="none" fill-rule="evenodd"/><path d="M201.065 334.214C200.021 312.451 211.458 293.593 226.61 292.093 241.762 290.594 254.891 307.022 255.935 328.786 256.017 330.503 256.021 332.225 255.947 333.943" stroke="#0070C0" stroke-width="4" stroke-linejoin="round" stroke-miterlimit="10" fill="none" fill-rule="evenodd"/><path d="M145.085 334.262C143.882 314.715 155.404 297.633 170.822 296.108 186.239 294.582 199.712 309.191 200.915 328.738 201.023 330.485 201.028 332.239 200.931 333.986" stroke="#0070C0" stroke-width="4" stroke-linejoin="round" stroke-miterlimit="10" fill="none" fill-rule="evenodd"/><path d="M0.068598 42.2636C-1.01333 20.5018 10.6149 1.62311 26.041 0.096827 41.4671-1.42946 54.8494 14.9747 55.9314 36.7364 56.0183 38.4844 56.0226 40.2386 55.9444 41.9874" stroke="#0070C0" stroke-width="4" stroke-linejoin="round" stroke-miterlimit="10" fill="none" fill-rule="evenodd" transform="matrix(-1 -8.74228e-08 -8.74228e-08 1 760 292)"/><path d="M0.0848678 38.262C-1.11826 18.7153 10.4044 1.63299 25.8215 0.107598 41.2386-1.4178 54.712 13.1913 55.9151 32.738 56.0226 34.4845 56.028 36.2387 55.9312 37.9862" stroke="#0070C0" stroke-width="4" stroke-linejoin="round" stroke-miterlimit="10" fill="none" fill-rule="evenodd" transform="matrix(-1 -8.74228e-08 -8.74228e-08 1 816 296)"/><text font-family="Arial,Arial_MSFontService,sans-serif" font-style="italic" font-weight="400" font-size="24" transform="translate(565.822 118)">F<tspan font-style="normal" x="14.6667" y="0">(</tspan><tspan font-family="Symbol,Symbol_MSFontService,sans-serif" font-style="oblique" x="22.6667" y="0"></tspan><tspan font-size="16" x="35.8334" y="5">z</tspan><tspan font-style="normal" x="43.8334" y="0">)</tspan></text><path d="M330.978 118.791 341.368 167.421 339.412 167.839 329.022 119.209ZM344.232 159.144 340.805 169.571 333.416 161.455C333.044 161.047 333.073 160.414 333.482 160.042 333.89 159.671 334.523 159.7 334.895 160.109L341.13 166.957 339.44 167.318 342.332 158.519C342.505 157.995 343.07 157.709 343.595 157.882 344.119 158.054 344.405 158.619 344.232 159.144Z" fill="#953735"/><text font-family="Arial,Arial_MSFontService,sans-serif" font-style="italic" font-weight="400" font-size="24" transform="translate(288.773 108)">F<tspan font-style="normal" x="14.6667" y="0">(</tspan><tspan font-family="Symbol,Symbol_MSFontService,sans-serif" font-style="oblique" x="22.6667" y="0"></tspan><tspan font-size="16" x="35.8333" y="5">z</tspan><tspan x="43.8333" y="0">+</tspan><tspan font-family="Symbol,Symbol_MSFontService,sans-serif" font-style="oblique" x="57.8333" y="0"></tspan><tspan font-style="normal" x="73" y="0">)</tspan></text><path d="M0.55146-0.624769 35.8529 30.5345 34.75 31.784-0.55146 0.624769ZM33.183 22.1047 36.5414 32.2537 26.0539 30.1814C25.6024 30.0922 25.3087 29.6539 25.398 29.2024 25.4872 28.7509 25.9255 28.4572 26.377 28.5464L35.463 30.3417 34.5103 31.421 31.6007 22.6283C31.4561 22.1914 31.6931 21.72 32.13 21.5754 32.567 21.4308 33.0384 21.6678 33.183 22.1047Z" fill="#0070C0" transform="matrix(-1 -8.74228e-08 -8.74228e-08 1 561.538 119)"/><path d="M9.91684e-08 337.167 875.561 337.167 875.561 338.833-9.91684e-08 338.833ZM874.227 334 882.227 338 874.227 342Z" fill="#002060"/><text font-family="Symbol,Symbol_MSFontService,sans-serif" font-style="oblique" font-weight="400" font-size="24" transform="translate(862.745 365)"><tspan font-family="Arial,Arial_MSFontService,sans-serif" font-style="italic" font-size="16" x="13.1666" y="5">z</tspan></text><path d="M0.833333-3.18619e-07 0.833436 267.922-0.833231 267.922-0.833333 3.18619e-07ZM4.0001 266.589 0.000104987 274.589-3.9999 266.589Z" fill="#002060" transform="matrix(1 0 0 -1 481 337.589)"/><text font-family="Cambria Math,Cambria Math_MSFontService,sans-serif" font-weight="400" font-size="24" transform="translate(221.403 499)">−<tspan x="22" y="-18">2𝜋</tspan><tspan x="29.5467" y="16">𝜆</tspan></text><path d="M243.403 490.74 252.736 490.74 262.069 490.74 271.403 490.74 271.403 492.74 262.069 492.74 252.736 492.74 243.403 492.74Z" fill-rule="evenodd"/><text font-family="Cambria Math,Cambria Math_MSFontService,sans-serif" font-weight="400" font-size="24" transform="translate(685.257 481)">2𝜋<tspan x="7.54669" y="34">𝜆</tspan></text><path d="M685.257 490.82 692.257 490.82 699.257 490.82 706.257 490.82 713.257 490.82 713.257 492.82 706.257 492.82 699.257 492.82 692.257 492.82 685.257 492.82Z" fill-rule="evenodd"/><path d="M0 0 0.000104987 370.628" stroke="#002060" stroke-width="1.66667" stroke-linejoin="round" stroke-miterlimit="10" stroke-dasharray="6.66667 5" fill="none" fill-rule="evenodd" transform="matrix(1 0 0 -1 256 454.628)"/><path d="M0 0 0.000104987 370.657" stroke="#002060" stroke-width="1.66667" stroke-linejoin="round" stroke-miterlimit="10" stroke-dasharray="6.66667 5" fill="none" fill-rule="evenodd" transform="matrix(1 0 0 -1 704 454.657)"/><path d="M1.98231-0.999999 445.903-0.999896 445.903 1.0001 1.98231 1ZM9.47613 5.53045-0.0046346-8.36706e-08 9.47613-5.53044C9.95318-5.80872 10.5655-5.64759 10.8438-5.17054 11.1221-4.69348 10.9609-4.08117 10.4839-3.80289L2.48387 0.863779 2.48387-0.863778 10.4839 3.80289C10.9609 4.08117 11.1221 4.69349 10.8438 5.17054 10.5655 5.64759 9.95318 5.80873 9.47613 5.53045ZM438.409-5.53034 447.89 0.000104934 438.409 5.53055C437.932 5.80883 437.319 5.64769 437.041 5.17064 436.763 4.69359 436.924 4.08127 437.401 3.80299L445.401-0.863674 445.401 0.863883 437.401-3.80279C436.924-4.08107 436.763-4.69338 437.041-5.17044 437.319-5.64749 437.932-5.80862 438.409-5.53034Z" fill="#006600" transform="matrix(1 0 0 -1 256 437)"/><text fill="#006600" font-family="Arial,Arial_MSFontService,sans-serif" font-weight="400" font-size="24" transform="translate(396.58 463)">VISIBLE RANGE<tspan fill="#000000" font-family="Cambria Math,Cambria Math_MSFontService,sans-serif" x="122.997" y="-99">2𝜋</tspan><tspan fill="#000000" font-family="Cambria Math,Cambria Math_MSFontService,sans-serif" x="130.337" y="-65">𝐿</tspan></text><path d="M519.577 373.907 528.911 373.907 538.244 373.907 547.577 373.907 547.577 375.907 538.244 375.907 528.911 375.907 519.577 375.907Z" fill-rule="evenodd"/><text font-family="Cambria Math,Cambria Math_MSFontService,sans-serif" font-weight="400" font-size="24" transform="translate(392.738 384)">−<tspan x="22" y="-18">2𝜋</tspan><tspan x="29.34" y="16">𝐿</tspan></text><path d="M414.738 376.207 424.071 376.207 433.404 376.207 442.738 376.207 442.738 378.207 433.404 378.207 424.071 378.207 414.738 378.207Z" fill-rule="evenodd"/><path d="M390.98 108 480.94 108 480.94 110 390.98 110ZM398.476 114.53 388.995 109 398.476 103.47C398.953 103.191 399.565 103.352 399.844 103.829 400.122 104.307 399.961 104.919 399.484 105.197L391.484 109.864 391.484 108.136 399.484 112.803C399.961 113.081 400.122 113.693 399.844 114.171 399.565 114.648 398.953 114.809 398.476 114.53ZM473.444 103.47 482.924 109 473.444 114.531C472.966 114.809 472.354 114.648 472.076 114.171 471.798 113.694 471.959 113.081 472.436 112.803L480.436 108.136 480.436 109.864 472.436 105.197C471.959 104.919 471.798 104.307 472.076 103.83 472.354 103.353 472.966 103.191 473.444 103.47Z" fill="#006600"/><text fill="#006600" font-family="Arial,Arial_MSFontService,sans-serif" font-style="italic" font-weight="400" font-size="24" transform="translate(432.734 97)">α<tspan fill="#000000" font-family="Ericsson Hilda,Ericsson Hilda_MSFontService,sans-serif" font-style="normal" x="41.136" y="276">0</tspan></text></g></svg>