<svg width="915" height="703" xmlns="http://www.w3.org/2000/svg" xmlns:xlink="http://www.w3.org/1999/xlink" overflow="hidden"><defs><clipPath id="clip0"><rect x="25" y="5" width="915" height="703"/></clipPath></defs><g clip-path="url(#clip0)" transform="translate(-25 -5)"><path d="M1.08426-0.775983 160.69 222.238 158.522 223.79-1.08426 0.775983ZM159.607 223.015 161.924 214.798 164.263 229.521 151.082 222.558Z" fill="#00B0F0" transform="matrix(1 0 0 -1 424.5 440.021)"/><path d="M424.5 438.833 929.76 438.833 929.76 440.167 424.5 440.167ZM922.092 434.258 931.08 439.5 922.092 444.743C921.774 444.928 921.366 444.821 921.181 444.503 920.995 444.185 921.102 443.776 921.421 443.591L929.421 438.924 929.421 440.076 921.421 435.409C921.102 435.224 920.995 434.816 921.181 434.498 921.366 434.18 921.774 434.072 922.092 434.258Z" fill="#4A7EBB"/><path d="M425.708 441.293 431.36 446.955 429.945 448.368 424.292 442.707ZM435.599 451.201 437.012 452.616 435.597 454.029 434.184 452.614ZM441.251 456.862 446.904 462.524 445.488 463.937 439.836 458.275ZM451.143 466.77 452.556 468.185 451.141 469.598 449.728 468.183ZM456.795 472.431 462.447 478.093 461.032 479.506 455.38 473.844ZM466.687 482.339 468.1 483.754 466.684 485.167 465.271 483.752ZM472.339 488 477.991 493.662 476.576 495.075 470.924 489.413ZM482.23 497.908 483.644 499.323 482.228 500.736 480.815 499.321ZM487.883 503.569 493.535 509.231 492.12 510.644 486.467 504.982ZM497.774 513.477 499.187 514.892 497.772 516.305 496.359 514.89ZM503.427 519.138 509.079 524.799 507.663 526.213 502.011 520.551ZM513.318 529.046 514.731 530.461 513.316 531.874 511.903 530.459ZM518.97 534.707 524.623 540.368 523.207 541.781 517.555 536.12ZM528.862 544.615 530.275 546.03 528.859 547.443 527.446 546.028ZM534.514 550.276 540.166 555.937 538.751 557.35 533.099 551.689ZM544.406 560.183 545.819 561.599 544.403 563.012 542.99 561.596ZM550.058 565.845 555.71 571.506 554.295 572.919 548.642 567.258ZM559.949 575.752 561.362 577.168 559.947 578.581 558.534 577.165ZM565.602 581.414 571.254 587.075 569.839 588.488 564.186 582.827ZM575.493 591.321 576.906 592.737 575.491 594.15 574.078 592.734ZM581.145 596.983 581.266 597.104 579.851 598.517 579.73 598.396ZM580.558 597.81 581.508 589.325 586.211 603.471 572.072 598.746Z" fill="#C00000"/><path d="M222.5 500.5 403.864 378.5 633.5 378.5 452.136 500.5Z" stroke="#385D8A" stroke-width="2.66667" stroke-linejoin="round" stroke-miterlimit="10" fill="#4F81BD" fill-rule="evenodd" fill-opacity="0.188235"/><path d="M0 5.5C-1.52776e-15 2.46243 2.68629 0 6 0 9.31371-1.40045e-15 12 2.46243 12 5.5 12 8.53757 9.31371 11 6 11 2.68629 11-2.29164e-15 8.53757 0 5.5Z" stroke="#385D8A" stroke-width="2.66667" stroke-linejoin="round" stroke-miterlimit="10" fill="#4F81BD" fill-rule="evenodd" transform="matrix(-1 -8.74228e-08 -8.74228e-08 1 598.5 201.5)"/><path d="M423.514 439.134 420.842 24.821 422.175 24.8124 424.847 439.125ZM416.316 32.5178 421.5 23.4969 426.8 32.4501C426.988 32.767 426.883 33.1759 426.566 33.3634 426.25 33.551 425.841 33.4462 425.653 33.1294L420.935 25.1597 422.087 25.1523 417.472 33.1822C417.288 33.5014 416.881 33.6114 416.561 33.4279 416.242 33.2445 416.132 32.837 416.316 32.5178Z" fill="#4A7EBB"/><path d="M590 216 590 612.45" stroke="#0070C0" stroke-width="1.66667" stroke-linejoin="round" stroke-miterlimit="10" stroke-dasharray="6.66667 5" fill="none" fill-rule="evenodd"/><path d="M0.392163-0.539122 331.889 240.595 331.104 241.674-0.392163 0.539122ZM328.391 232.392 332.574 241.918 322.223 240.871C321.857 240.834 321.59 240.507 321.627 240.141 321.664 239.775 321.991 239.508 322.357 239.545L331.572 240.477 330.894 241.408 327.17 232.928C327.022 232.591 327.175 232.198 327.512 232.05 327.849 231.902 328.243 232.055 328.391 232.392Z" fill="#4A7EBB" transform="matrix(-1 -8.74228e-08 -8.74228e-08 1 424.072 439.5)"/><text font-family="Calibri,Calibri_MSFontService,sans-serif" font-style="italic" font-weight="400" font-size="27" transform="translate(127.564 684)">x<tspan font-size="24" x="786.792" y="-220">y</tspan></text><path d="M187 613 589.985 613" stroke="#00B050" stroke-width="1.66667" stroke-linejoin="round" stroke-miterlimit="10" stroke-dasharray="6.66667 5" fill="none" fill-rule="evenodd"/><path d="M0 0 234.357 174.012" stroke="#00B050" stroke-width="1.66667" stroke-linejoin="round" stroke-miterlimit="10" stroke-dasharray="6.66667 5" fill="none" fill-rule="evenodd" transform="matrix(1 0 0 -1 593 613.012)"/><text font-family="Cambria Math,Cambria Math_MSFontService,sans-serif" font-weight="400" font-size="24" transform="translate(499.845 294)">ğ‘…</text><path d="M426.659 132.251 437.784 133.001 448.871 134.316 459.775 136.258 470.548 138.7 481.198 141.706 491.597 145.214 501.808 149.222 511.771 153.796 521.482 158.869 530.941 164.444 540.148 170.456 548.984 176.973 557.505 183.989 565.711 191.442 573.48 199.273 580.275 206.866 579.53 207.533 572.77 199.977 565.039 192.183 556.87 184.761 548.391 177.777 539.602 171.294 530.434 165.306 521.018 159.756 511.354 154.704 501.442 150.153 491.278 146.161 480.927 142.669 470.327 139.675 459.6 137.242 448.754 135.309 437.716 133.999 426.591 133.249ZM578.536 198.026 580.564 207.939 570.936 204.825C570.674 204.74 570.53 204.458 570.615 204.196 570.699 203.933 570.981 203.789 571.244 203.874L580.056 206.724 579.413 207.3 577.556 198.226C577.501 197.956 577.675 197.692 577.946 197.636 578.216 197.581 578.48 197.755 578.536 198.026Z" fill="#4A7EBB"/><text font-family="Symbol,Symbol_MSFontService,sans-serif" font-style="oblique" font-weight="400" font-size="27" transform="translate(503.006 142)">ï±</text><path d="M505.948 537.323 498.41 541.073 485.756 546.398 472.787 550.848 459.635 554.544 446.228 557.364 432.638 559.432 418.981 560.623 405.326 561 391.611 560.625 377.954 559.373 364.425 557.307 351.02 554.426 337.803 550.732 324.836 546.222 312.179 540.835 299.901 534.697 300.349 533.803 312.571 539.915 325.164 545.278 338.072 549.768 351.23 553.449 364.576 556.318 378.046 558.377 391.639 559.625 405.299 560 418.894 559.627 432.487 558.443 446.022 556.386 459.365 553.581 472.463 549.902 485.369 545.477 497.965 540.177 505.502 536.428ZM505.725 536.875 501.556 534.482 510.5 534.5 505.119 541.645Z" fill="#4A7EBB"/><text font-family="Symbol,Symbol_MSFontService,sans-serif" font-style="oblique" font-weight="400" font-size="32" transform="translate(380.674 595)">ïª<tspan font-family="Cambria Math,Cambria Math_MSFontService,sans-serif" font-style="normal" font-size="24" x="-342.528" y="17">ğ‘…</tspan><tspan font-family="Cambria Math,Cambria Math_MSFontService,sans-serif" font-style="normal" font-size="24" x="-322.495" y="17">sin</tspan><tspan font-family="Cambria Math,Cambria Math_MSFontService,sans-serif" font-style="normal" font-size="24" x="-288.161" y="17">ğœƒ</tspan><tspan font-family="Cambria Math,Cambria Math_MSFontService,sans-serif" font-style="normal" font-size="24" x="-269.961" y="17">cos</tspan><tspan font-family="Cambria Math,Cambria Math_MSFontService,sans-serif" font-style="normal" font-size="24" x="-232.461" y="17">ğœ‘</tspan><tspan font-family="Cambria Math,Cambria Math_MSFontService,sans-serif" font-style="normal" font-size="24" x="402.654" y="-177">ğ‘…</tspan><tspan font-family="Cambria Math,Cambria Math_MSFontService,sans-serif" font-style="normal" font-size="24" x="422.687" y="-177">sin</tspan><tspan font-family="Cambria Math,Cambria Math_MSFontService,sans-serif" font-style="normal" font-size="24" x="457.02" y="-177">ğœƒ</tspan><tspan font-family="Cambria Math,Cambria Math_MSFontService,sans-serif" font-style="normal" font-size="24" x="475.22" y="-177">sin</tspan><tspan font-family="Cambria Math,Cambria Math_MSFontService,sans-serif" font-style="normal" font-size="24" x="509.554" y="-177">ğœ‘</tspan><tspan fill="#0070C0" font-family="Calibri,Calibri_MSFontService,sans-serif" font-style="normal" font-size="24" x="221.962" y="-438">Field observation </tspan><tspan fill="#0070C0" font-family="Calibri,Calibri_MSFontService,sans-serif" font-style="normal" font-size="24" x="221.962" y="-408">point (</tspan><tspan fill="#0070C0" font-size="24" x="286.075" y="-408">ï±</tspan><tspan fill="#0070C0" font-family="Calibri,Calibri_MSFontService,sans-serif" font-style="normal" font-size="24" x="298.575" y="-408">,</tspan><tspan fill="#0070C0" font-size="24" x="304.575" y="-408">ïª</tspan><tspan fill="#0070C0" font-family="Calibri,Calibri_MSFontService,sans-serif" font-style="normal" font-size="24" x="319.075" y="-408">)</tspan></text><path d="M0 5.5C-1.52776e-15 2.46243 2.68629 0 6 0 9.31371-1.40045e-15 12 2.46243 12 5.5 12 8.53757 9.31371 11 6 11 2.68629 11-2.29164e-15 8.53757 0 5.5Z" stroke="#385D8A" stroke-width="2.66667" stroke-linejoin="round" stroke-miterlimit="10" fill="#00B050" fill-rule="evenodd" transform="matrix(-1 -8.74228e-08 -8.74228e-08 1 825.5 435.5)"/><path d="M0 6C-1.52776e-15 2.68629 2.68629 0 6 0 9.31371-1.52776e-15 12 2.68629 12 6 12 9.31371 9.31371 12 6 12 2.68629 12-2.29164e-15 9.31371 0 6Z" stroke="#385D8A" stroke-width="2.66667" stroke-linejoin="round" stroke-miterlimit="10" fill="#00B050" fill-rule="evenodd" transform="matrix(-1 -8.74228e-08 -8.74228e-08 1 190.5 605.5)"/><text fill="#0070C0" font-family="Calibri,Calibri_MSFontService,sans-serif" font-weight="400" font-size="24" transform="translate(231.231 422)">Array</text><path d="M265.862 436.155 293.532 465.146 292.809 465.837 265.138 436.845ZM291.509 456.367 293.856 466.21 284.133 463.407C283.868 463.331 283.714 463.054 283.791 462.788 283.867 462.523 284.145 462.37 284.41 462.446L293.309 465.011 292.684 465.608 290.537 456.599C290.473 456.33 290.638 456.06 290.907 455.996 291.176 455.932 291.445 456.098 291.509 456.367Z" fill="#4A7EBB"/><path d="M0 6C-1.40045e-15 2.68629 2.46243 0 5.5 0 8.53757-1.52776e-15 11 2.68629 11 6 11 9.31371 8.53757 12 5.5 12 2.46243 12-2.10067e-15 9.31371 0 6Z" stroke="#385D8A" stroke-width="2.66667" stroke-linejoin="round" stroke-miterlimit="10" fill="#953735" fill-rule="evenodd" transform="matrix(-1 -8.74228e-08 -8.74228e-08 1 594.5 605.5)"/><text font-family="Cambria Math,Cambria Math_MSFontService,sans-serif" font-weight="400" font-size="24" transform="translate(562.798 644)">ğ‘…<tspan x="20.0333" y="0">sin</tspan><tspan x="54.3666" y="0">ğœƒ</tspan><tspan fill="#002060" font-family="Calibri,Calibri_MSFontService,sans-serif" font-style="italic" x="-223.079" y="-124">L</tspan><tspan fill="#002060" font-family="Calibri,Calibri_MSFontService,sans-serif" font-size="16" x="-212.913" y="-119">y</tspan><tspan fill="#002060" font-family="Calibri,Calibri_MSFontService,sans-serif" font-style="italic" x="-26.4368" y="-183">L</tspan><tspan fill="#002060" font-family="Calibri,Calibri_MSFontService,sans-serif" font-size="16" x="-16.2701" y="-178">x</tspan><tspan x="-170.5" y="-610">ğ‘§</tspan></text></g></svg>